<svg width="700" height="350" viewBox="0 0 700 350" xmlns="http://www.w3.org/2000/svg">
  <rect width="700" height="350" fill="#f9fafb" rx="8"/>
  <text x="350" y="35" text-anchor="middle" font-size="18" font-weight="900" fill="#1f2937">Client Handoff Complexity</text>

  <!-- 10Web -->
  <rect x="50" y="70" width="280" height="200" fill="#ffffff" stroke="#3b82f6" stroke-width="3" rx="8"/>
  <rect x="50" y="70" width="280" height="40" fill="#3b82f6" rx="8"/>
  <text x="190" y="97" text-anchor="middle" font-size="16" font-weight="900" fill="#ffffff">10Web</text>
  <text x="70" y="140" font-size="13" fill="#374151">✓ WordPress dashboard</text>
  <text x="70" y="165" font-size="13" fill="#374151">✓ Plugin management</text>
  <text x="70" y="190" font-size="13" fill="#374151">✓ Theme options</text>
  <text x="70" y="215" font-size="13" fill="#374151">✓ Updates & security</text>
  <rect x="70" y="235" width="240" height="25" fill="#fef3c7" rx="4"/>
  <text x="190" y="252" text-anchor="middle" font-size="12" font-weight="700" fill="#92400e">Training: 2 hours</text>

  <!-- Simple builders -->
  <rect x="370" y="70" width="280" height="200" fill="#ffffff" stroke="#10b981" stroke-width="3" rx="8"/>
  <rect x="370" y="70" width="280" height="40" fill="#10b981" rx="8"/>
  <text x="510" y="97" text-anchor="middle" font-size="16" font-weight="900" fill="#ffffff">Durable / Mixo</text>
  <text x="390" y="140" font-size="13" fill="#374151">✓ Simple editor</text>
  <text x="390" y="165" font-size="13" fill="#374151">✓ No plugins</text>
  <text x="390" y="190" font-size="13" fill="#374151">✓ No themes</text>
  <text x="390" y="215" font-size="13" fill="#374151">✓ Auto updates</text>
  <rect x="390" y="235" width="240" height="25" fill="#d1fae5" rx="4"/>
  <text x="510" y="252" text-anchor="middle" font-size="12" font-weight="700" fill="#047857">Training: 15 minutes</text>

  <text x="350" y="315" text-anchor="middle" font-size="12" fill="#6b7280">10Web = WordPress power, but WordPress complexity</text>
</svg>