<svg width="700" height="400" viewBox="0 0 700 400" xmlns="http://www.w3.org/2000/svg">
  <rect width="700" height="400" fill="#f9fafb" rx="8"/>

  <!-- Emergency banner -->
  <rect x="0" y="0" width="700" height="60" fill="#ef4444" rx="8"/>
  <text x="350" y="38" text-anchor="middle" font-size="22" font-weight="900" fill="#ffffff">🚨 FRIDAY 4:45 PM EMERGENCY</text>

  <!-- Before state -->
  <rect x="30" y="90" width="300" height="140" fill="#fee2e2" stroke="#ef4444" stroke-width="2" rx="8"/>
  <text x="180" y="120" text-anchor="middle" font-size="16" font-weight="700" fill="#dc2626">BEFORE</text>
  <text x="50" y="150" font-size="14" fill="#7f1d1d">• Site broken</text>
  <text x="50" y="175" font-size="14" fill="#7f1d1d">• 217 products</text>
  <text x="50" y="200" font-size="14" fill="#7f1d1d">• $12K/month revenue</text>
  <text x="50" y="225" font-size="14" font-weight="700" fill="#dc2626">• Host: "Monday at earliest"</text>

  <!-- Arrow -->
  <path d="M 340 160 L 360 160" stroke="#ef4444" stroke-width="4" marker-end="url(#arrowhead)"/>
  <defs>
    <marker id="arrowhead" markerWidth="10" markerHeight="10" refX="9" refY="3" orient="auto">
      <polygon points="0 0, 10 3, 0 6" fill="#ef4444"/>
    </marker>
  </defs>

  <!-- After state -->
  <rect x="370" y="90" width="300" height="140" fill="#d1fae5" stroke="#10b981" stroke-width="2" rx="8"/>
  <text x="520" y="120" text-anchor="middle" font-size="16" font-weight="700" fill="#047857">AFTER 10WEB</text>
  <text x="390" y="150" font-size="14" fill="#064e3b">• Site live ✓</text>
  <text x="390" y="175" font-size="14" fill="#064e3b">• All products migrated</text>
  <text x="390" y="200" font-size="14" fill="#064e3b">• Revenue protected</text>
  <text x="390" y="225" font-size="14" font-weight="700" fill="#047857">• Migration: 3 minutes</text>

  <!-- Bottom stats -->
  <rect x="30" y="260" width="640" height="60" fill="#ffffff" stroke="#d1d5db" stroke-width="2" rx="8"/>
  <text x="350" y="285" text-anchor="middle" font-size="14" fill="#6b7280">Alternative: Wait until Monday</text>
  <text x="350" y="305" text-anchor="middle" font-size="14" font-weight="700" fill="#dc2626">Revenue loss: $2,800+ (3 days × $933/day)</text>

  <rect x="200" y="340" width="300" height="40" fill="#10b981" rx="4"/>
  <text x="350" y="365" text-anchor="middle" font-size="16" font-weight="700" fill="#ffffff">Client saved. Business protected.</text>
</svg>