<svg width="600" height="280" viewBox="0 0 600 280" xmlns="http://www.w3.org/2000/svg">
  <rect width="600" height="280" fill="#fef3c7" rx="8"/>
  <text x="300" y="30" text-anchor="middle" font-size="18" font-weight="900" fill="#92400e">E-commerce Reality: Overpriced Features</text>
  
  <!-- Header row -->
  <rect x="30" y="50" width="540" height="30" fill="#1f2937" rx="3"/>
  <text x="45" y="70" font-size="11" font-weight="700" fill="#ffffff">Feature</text>
  <text x="200" y="70" font-size="11" font-weight="700" fill="#ffffff" text-anchor="middle">Bookmark</text>
  <text x="320" y="70" font-size="11" font-weight="700" fill="#ffffff" text-anchor="middle">10Web+Woo</text>
  <text x="460" y="70" font-size="11" font-weight="700" fill="#ffffff" text-anchor="middle">Shopify</text>
  <text x="570" y="70" font-size="10" font-weight="700" fill="#ffffff" text-anchor="end">Price</text>
  
  <!-- Product pages -->
  <rect x="30" y="85" width="540" height="30" fill="#ffffff" stroke="#fcd34d" stroke-width="1" rx="3"/>
  <text x="45" y="105" font-size="11" fill="#374151">Product pages</text>
  <text x="200" y="105" font-size="14" text-anchor="middle" fill="#22c55e">✓</text>
  <text x="320" y="105" font-size="14" text-anchor="middle" fill="#22c55e">✓</text>
  <text x="460" y="105" font-size="14" text-anchor="middle" fill="#22c55e">✓</text>
  <text x="570" y="105" font-size="11" font-weight="700" fill="#dc2626" text-anchor="end">$29-99</text>
  
  <!-- Cart -->
  <rect x="30" y="120" width="540" height="30" fill="#ffffff" stroke="#fcd34d" stroke-width="1" rx="3"/>
  <text x="45" y="140" font-size="11" fill="#374151">Cart (ajax)</text>
  <text x="200" y="140" font-size="14" text-anchor="middle" fill="#22c55e">✓</text>
  <text x="320" y="140" font-size="14" text-anchor="middle" fill="#22c55e">✓</text>
  <text x="460" y="140" font-size="14" text-anchor="middle" fill="#22c55e">✓</text>
  <text x="570" y="140" font-size="11" font-weight="700" fill="#22c55e" text-anchor="end">$10-20</text>
  
  <!-- Checkout -->
  <rect x="30" y="155" width="540" height="30" fill="#ffffff" stroke="#fcd34d" stroke-width="1" rx="3"/>
  <text x="45" y="175" font-size="11" fill="#374151">Stripe/PayPal</text>
  <text x="200" y="175" font-size="14" text-anchor="middle" fill="#22c55e">✓</text>
  <text x="320" y="175" font-size="14" text-anchor="middle" fill="#22c55e">✓</text>
  <text x="460" y="175" font-size="14" text-anchor="middle" fill="#22c55e">✓</text>
  <text x="570" y="175" font-size="11" font-weight="700" fill="#22c55e" text-anchor="end">$29</text>
  
  <!-- Backend -->
  <rect x="30" y="190" width="540" height="30" fill="#ffffff" stroke="#fcd34d" stroke-width="1" rx="3"/>
  <text x="45" y="210" font-size="11" fill="#374151">Order management</text>
  <text x="200" y="210" font-size="14" text-anchor="middle" fill="#22c55e">✓</text>
  <text x="320" y="210" font-size="14" text-anchor="middle" fill="#22c55e">✓</text>
  <text x="460" y="210" font-size="14" text-anchor="middle" fill="#22c55e">✓</text>
  <text x="570" y="210" font-size="10" fill="#dc2626" text-anchor="end">Priced like Shopify</text>
  
  <!-- Value verdict -->
  <rect x="30" y="225" width="540" height="35" fill="#fee2e2" stroke="#dc2626" stroke-width="1" rx="3"/>
  <text x="45" y="247" font-size="11" font-weight="700" fill="#991b1b">Verdict:</text>
  <text x="300" y="247" font-size="11" font-weight="700" fill="#991b1b" text-anchor="middle">Solid features, but priced like industry leader (Shopify) for less value</text>
</svg>