<svg width="600" height="300" viewBox="0 0 600 300" xmlns="http://www.w3.org/2000/svg">
  <rect width="600" height="300" fill="#fef3c7" rx="8"/>
  <text x="300" y="30" text-anchor="middle" font-size="18" font-weight="900" fill="#92400e">Value Gap: 1.5-3× Overpriced</text>
  
  <!-- Codedesign column -->
  <rect x="50" y="55" width="150" height="200" fill="#fee2e2" stroke="#dc2626" stroke-width="3" rx="5"/>
  <text x="125" y="80" font-size="13" font-weight="900" fill="#991b1b" text-anchor="middle">Codedesign</text>
  <text x="125" y="100" font-size="12" font-weight="700" fill="#dc2626" text-anchor="middle">$29+/mo</text>
  <line x1="50" y1="110" x2="200" y2="110" stroke="#dc2626" stroke-width="1"/>
  <text x="60" y="135" font-size="10" fill="#991b1b">✗ Mediocre templates</text>
  <text x="60" y="155" font-size="10" fill="#991b1b">✗ Broken export</text>
  <text x="60" y="175" font-size="10" fill="#991b1b">✗ Basic AI</text>
  <text x="60" y="195" font-size="10" fill="#991b1b">✗ Limited features</text>
  <text x="60" y="215" font-size="10" fill="#991b1b">✗ No brand</text>
  <rect x="60" y="225" width="130" height="20" fill="#dc2626" rx="2"/>
  <text x="125" y="238" font-size="9" font-weight="700" fill="#ffffff" text-anchor="middle">BAD VALUE</text>
  
  <!-- Framer column -->
  <rect x="225" y="55" width="150" height="200" fill="#d1fae5" stroke="#22c55e" stroke-width="2" rx="5"/>
  <text x="300" y="80" font-size="13" font-weight="900" fill="#059669" text-anchor="middle">Framer</text>
  <text x="300" y="100" font-size="12" font-weight="700" fill="#059669" text-anchor="middle">$15-20/mo</text>
  <line x1="225" y1="110" x2="375" y2="110" stroke="#22c55e" stroke-width="1"/>
  <text x="235" y="135" font-size="10" fill="#059669">✓ Premium templates</text>
  <text x="235" y="155" font-size="10" fill="#059669">✓ Clean export</text>
  <text x="235" y="175" font-size="10" fill="#059669">✓ Superior AI</text>
  <text x="235" y="195" font-size="10" fill="#059669">✓ Better design</text>
  <text x="235" y="215" font-size="10" fill="#059669">✓ Strong brand</text>
  <rect x="235" y="225" width="130" height="20" fill="#22c55e" rx="2"/>
  <text x="300" y="238" font-size="9" font-weight="700" fill="#ffffff" text-anchor="middle">EXCELLENT</text>
  
  <!-- 10Web column -->
  <rect x="400" y="55" width="150" height="200" fill="#d1fae5" stroke="#22c55e" stroke-width="2" rx="5"/>
  <text x="475" y="80" font-size="13" font-weight="900" fill="#059669" text-anchor="middle">10Web</text>
  <text x="475" y="100" font-size="12" font-weight="700" fill="#059669" text-anchor="middle">$10-20/mo</text>
  <line x1="400" y1="110" x2="550" y2="110" stroke="#22c55e" stroke-width="1"/>
  <text x="410" y="135" font-size="10" fill="#059669">✓ 100+ templates</text>
  <text x="410" y="155" font-size="10" fill="#059669">✓ WordPress power</text>
  <text x="410" y="175" font-size="10" fill="#059669">✓ Real e-commerce</text>
  <text x="410" y="195" font-size="10" fill="#059669">✓ Good AI</text>
  <text x="410" y="215" font-size="10" fill="#059669">✓ Growing brand</text>
  <rect x="410" y="225" width="130" height="20" fill="#22c55e" rx="2"/>
  <text x="475" y="238" font-size="9" font-weight="700" fill="#ffffff" text-anchor="middle">GREAT VALUE</text>
  
  <!-- Bottom verdict -->
  <text x="300" y="280" font-size="10" fill="#374151" text-anchor="middle">Codedesign: You're overpaying for a mid-tier product with no brand equity</text>
  <text x="300" y="295" font-size="10" font-weight="700" fill="#dc2626" text-anchor="middle">This is the definition of bad value</text>
</svg>