<svg width="600" height="280" viewBox="0 0 600 280" xmlns="http://www.w3.org/2000/svg">
  <rect width="600" height="280" fill="#ecfdf5" rx="8"/>
  <text x="300" y="30" text-anchor="middle" font-size="18" font-weight="900" fill="#065f46">✓ Built-in CRM Actually Works</text>

  <!-- Lead form -->
  <rect x="30" y="50" width="200" height="200" fill="#ffffff" stroke="#10b981" stroke-width="2" rx="6"/>
  <text x="130" y="75" text-anchor="middle" font-size="12" font-weight="900" fill="#065f46">Website Form</text>
  <rect x="50" y="95" width="160" height="25" fill="#f3f4f6" rx="3"/>
  <text x="60" y="112" font-size="10" fill="#6b7280">Name: John Smith</text>
  <rect x="50" y="130" width="160" height="25" fill="#f3f4f6" rx="3"/>
  <text x="60" y="147" font-size="10" fill="#6b7280">Email: john@email.com</text>
  <rect x="50" y="165" width="160" height="25" fill="#f3f4f6" rx="3"/>
  <text x="60" y="182" font-size="10" fill="#6b7280">Message: Need quote...</text>
  <rect x="50" y="200" width="160" height="30" fill="#10b981" rx="3"/>
  <text x="130" y="220" text-anchor="middle" font-size="11" font-weight="700" fill="#ffffff">Submit →</text>

  <!-- CRM dashboard -->
  <rect x="260" y="50" width="310" height="200" fill="#ffffff" stroke="#10b981" stroke-width="2" rx="6"/>
  <text x="415" y="75" text-anchor="middle" font-size="12" font-weight="900" fill="#065f46">CRM Dashboard (Auto-Populated)</text>

  <text x="280" y="100" font-size="10" font-weight="700" fill="#374151">LEADS</text>
  <rect x="280" y="110" width="270" height="35" fill="#f0fdf4" rx="3"/>
  <text x="290" y="125" font-size="9" font-weight="700" fill="#065f46">John Smith</text>
  <text x="290" y="138" font-size="8" fill="#6b7280">john@email.com • 2 min ago</text>
  <text x="500" y="130" font-size="9" fill="#059669">NEW</text>

  <rect x="280" y="150" width="270" height="35" fill="#f9fafb" rx="3"/>
  <text x="290" y="165" font-size="9" font-weight="700" fill="#374151">Sarah Johnson</text>
  <text x="290" y="178" font-size="8" fill="#6b7280">sarah@co.com • 1 day ago</text>
  <text x="500" y="170" font-size="9" fill="#6b7280">CONTACTED</text>

  <text x="280" y="200" font-size="9" fill="#6b7280">Actions: Add tag • Send email • Create invoice</text>

  <text x="415" y="270" text-anchor="middle" font-size="11" font-weight="700" fill="#059669">Tested: Form submission → CRM appeared in 3 seconds ✓</text>
</svg>