<svg width="600" height="320" viewBox="0 0 600 320" xmlns="http://www.w3.org/2000/svg">
  <rect width="600" height="320" fill="#fef2f2" rx="8"/>
  <text x="300" y="30" text-anchor="middle" font-size="18" font-weight="900" fill="#991b1b">12 Upsells in 15 Minutes: Relentless</text>

  <rect x="20" y="45" width="180" height="20" fill="#dc2626" rx="3"/>
  <text x="110" y="59" text-anchor="middle" font-size="11" font-weight="900" fill="#ffffff">UPSELL</text>
  <rect x="210" y="45" width="120" height="20" fill="#f3f4f6" rx="3"/>
  <text x="270" y="59" text-anchor="middle" font-size="10" font-weight="600" fill="#374151">WHEN</text>
  <rect x="340" y="45" width="240" height="20" fill="#f3f4f6" rx="3"/>
  <text x="460" y="59" text-anchor="middle" font-size="10" font-weight="600" fill="#374151">PRICE</text>

    <rect x="20" y="53" width="560" height="25" fill="#ffffff" stroke="#fecaca" stroke-width="1" rx="3"/>
    <text x="35" y="70" font-size="10" font-weight="600" fill="#374151">Domain privacy</text>
    <text x="220" y="70" font-size="9" fill="#6b7280">Sign-up</text>
    <text x="580" y="70" text-anchor="end" font-size="10" font-weight="700" fill="#dc2626">$9.99/yr</text>

    <rect x="20" y="81" width="560" height="25" fill="#ffffff" stroke="#fecaca" stroke-width="1" rx="3"/>
    <text x="35" y="98" font-size="10" font-weight="600" fill="#374151">Premium templates</text>
    <text x="220" y="98" font-size="9" fill="#6b7280">AI generation</text>
    <text x="580" y="98" text-anchor="end" font-size="10" font-weight="700" fill="#dc2626">$15/mo</text>

    <rect x="20" y="109" width="560" height="25" fill="#ffffff" stroke="#fecaca" stroke-width="1" rx="3"/>
    <text x="35" y="126" font-size="10" font-weight="600" fill="#374151">Email marketing</text>
    <text x="220" y="126" font-size="9" fill="#6b7280">Preview</text>
    <text x="580" y="126" text-anchor="end" font-size="10" font-weight="700" fill="#dc2626">$20/mo</text>

    <rect x="20" y="137" width="560" height="25" fill="#ffffff" stroke="#fecaca" stroke-width="1" rx="3"/>
    <text x="35" y="154" font-size="10" font-weight="600" fill="#374151">SEO services</text>
    <text x="220" y="154" font-size="9" fill="#6b7280">Launch</text>
    <text x="580" y="154" text-anchor="end" font-size="10" font-weight="700" fill="#dc2626">$50/mo</text>

    <rect x="20" y="165" width="560" height="25" fill="#ffffff" stroke="#fecaca" stroke-width="1" rx="3"/>
    <text x="35" y="182" font-size="10" font-weight="600" fill="#374151">Site backup</text>
    <text x="220" y="182" font-size="9" fill="#6b7280">Launch</text>
    <text x="580" y="182" text-anchor="end" font-size="10" font-weight="700" fill="#dc2626">$3/mo</text>

    <rect x="20" y="193" width="560" height="25" fill="#ffffff" stroke="#fecaca" stroke-width="1" rx="3"/>
    <text x="35" y="210" font-size="10" font-weight="600" fill="#374151">Security suite</text>
    <text x="220" y="210" font-size="9" fill="#6b7280">Preview</text>
    <text x="580" y="210" text-anchor="end" font-size="10" font-weight="700" fill="#dc2626">$15/mo</text>

    <rect x="20" y="221" width="560" height="25" fill="#ffffff" stroke="#fecaca" stroke-width="1" rx="3"/>
    <text x="35" y="238" font-size="10" font-weight="600" fill="#374151">More storage</text>
    <text x="220" y="238" font-size="9" fill="#6b7280">Upload</text>
    <text x="580" y="238" text-anchor="end" font-size="10" font-weight="700" fill="#dc2626">$10/mo</text>

    <rect x="20" y="249" width="560" height="25" fill="#ffffff" stroke="#fecaca" stroke-width="1" rx="3"/>
    <text x="35" y="266" font-size="10" font-weight="600" fill="#374151">Professional email</text>
    <text x="220" y="266" font-size="9" fill="#6b7280">Sign-up</text>
    <text x="580" y="266" text-anchor="end" font-size="10" font-weight="700" fill="#dc2626">$5/mo</text>

    <rect x="20" y="277" width="560" height="25" fill="#ffffff" stroke="#fecaca" stroke-width="1" rx="3"/>
    <text x="35" y="294" font-size="10" font-weight="600" fill="#374151">Domain lock</text>
    <text x="220" y="294" font-size="9" fill="#6b7280">Sign-up</text>
    <text x="580" y="294" text-anchor="end" font-size="10" font-weight="700" fill="#dc2626">$8/yr</text>

  <rect x="20" y="315" width="560" height="1" fill="#e5e7eb"/>
  <text x="300" y="310" text-anchor="middle" font-size="11" fill="#dc2626">Total potential extra cost: $171+/year before your site launches</text>
</svg>