<svg width="600" height="300" viewBox="0 0 600 300" xmlns="http://www.w3.org/2000/svg">
  <rect width="600" height="300" fill="#fef3c7" rx="8"/>
  <text x="300" y="30" text-anchor="middle" font-size="18" font-weight="900" fill="#92400e">Time vs Money: When Each Makes Sense</text>
  
  <!-- Hostwinds path -->
  <rect x="30" y="55" width="265" height="180" fill="#d1fae5" stroke="#22c55e" stroke-width="2" rx="5"/>
  <text x="162" y="80" font-size="13" font-weight="900" fill="#059669" text-anchor="middle">Hostwinds Path</text>
  
  <text x="45" y="110" font-size="11" font-weight="700" fill="#059669">Already have hosting?</text>
  <text x="45" y="130" font-size="10" fill="#059669">• Builder: Free</text>
  <text x="45" y="145" font-size="10" fill="#059669">• Setup: 1-2 hours</text>
  <text x="45" y="160" font-size="10" fill="#059669">• Revision frustration: Medium</text>
  
  <rect x="45" y="175" width="230" height="25" fill="#22c55e" rx="3"/>
  <text x="162" y="192" font-size="10" font-weight="700" fill="#ffffff" text-anchor="middle">Total: $0 extra, 2-3 hours</text>
  
  <text x="162" y="220" font-size="10" fill="#059669" text-anchor="middle">✓ Smart if you're already customer</text>
  
  <!-- Framer path -->
  <rect x="305" y="55" width="265" height="180" fill="#dbeafe" stroke="#3b82f6" stroke-width="2" rx="5"/>
  <text x="437" y="80" font-size="13" font-weight="900" fill="#1d4ed8" text-anchor="middle">Framer + External Hosting</text>
  
  <text x="320" y="110" font-size="11" font-weight="700" fill="#1d4ed8">Need best builder?</text>
  <text x="320" y="130" font-size="10" fill="#1d4ed8">• Builder: $15-35/mo</text>
  <text x="320" y="145" font-size="10" fill="#1d4ed8">• Hosting: $5-10/mo</text>
  <text x="320" y="160" font-size="10" fill="#1d4ed8">• Setup: 30-60 min</text>
  <text x="320" y="175" font-size="10" fill="#1d4ed8">• Revision frustration: Low</text>
  
  <rect x="320" y="185" width="230" height="25" fill="#3b82f6" rx="3"/>
  <text x="437" y="202" font-size="10" font-weight="700" fill="#ffffff" text-anchor="middle">Total: $20-45/mo, 1 hour</text>
  
  <text x="437" y="220" font-size="10" fill="#1d4ed8" text-anchor="middle">✓ Better result, less frustration</text>
  
  <!-- Bottom verdict -->
  <rect x="30" y="250" width="540" height="35" fill="#1f2937" rx="3"/>
  <text x="300" y="265" font-size="11" font-weight="700" fill="#ffffff" text-anchor="middle">The Decision Framework</text>
  <text x="300" y="280" font-size="10" fill="#fbbf24" text-anchor="middle">Hostwinds: Existing customers | Framer: Everyone else</text>
</svg>