<svg width="600" height="260" viewBox="0 0 600 260" xmlns="http://www.w3.org/2000/svg">
  <rect width="600" height="260" fill="#fef3c7" rx="8"/>
  <text x="300" y="30" text-anchor="middle" font-size="18" font-weight="900" fill="#92400e">AI Features: Basic vs Best-in-Class</text>
  
  <!-- Header -->
  <rect x="30" y="50" width="540" height="25" fill="#1f2937" rx="3"/>
  <text x="45" y="67" font-size="11" font-weight="700" fill="#ffffff">Tool</text>
  <text x="200" y="67" font-size="11" font-weight="700" fill="#ffffff" text-anchor="middle">Speed</text>
  <text x="320" y="67" font-size="11" font-weight="700" fill="#ffffff" text-anchor="middle">Quality</text>
  <text x="460" y="67" font-size="11" font-weight="700" fill="#ffffff" text-anchor="middle">Focus</text>
  
  <!-- Hostwinds -->
  <rect x="30" y="80" width="540" height="30" fill="#fee2e2" stroke="#dc2626" stroke-width="1" rx="3"/>
  <text x="45" y="100" font-size="11" font-weight="700" fill="#991b1b">Hostwinds</text>
  <text x="200" y="100" font-size="11" text-anchor="middle" fill="#991b1b">60-90s</text>
  <text x="320" y="100" font-size="10" text-anchor="middle" fill="#991b1b">Basic templates</text>
  <text x="460" y="100" font-size="10" text-anchor="middle" fill="#991b1b">Not AI-focused</text>
  
  <!-- Durable -->
  <rect x="30" y="115" width="540" height="30" fill="#d1fae5" stroke="#22c55e" stroke-width="1" rx="3"/>
  <text x="45" y="135" font-size="11" font-weight="700" fill="#059669">Durable</text>
  <text x="200" y="135" font-size="11" text-anchor="middle" fill="#059669">30s</text>
  <text x="320" y="135" font-size="10" text-anchor="middle" fill="#059669">Best layouts</text>
  <text x="460" y="135" font-size="10" text-anchor="middle" fill="#059669">AI-first</text>
  
  <!-- Framer AI -->
  <rect x="30" y="150" width="540" height="30" fill="#d1fae5" stroke="#22c55e" stroke-width="2" rx="3"/>
  <text x="45" y="170" font-size="11" font-weight="700" fill="#059669">Framer AI</text>
  <text x="200" y="170" font-size="11" text-anchor="middle" fill="#059669">~45s</text>
  <text x="320" y="170" font-size="10" text-anchor="middle" fill="#059669">Superior design</text>
  <text x="460" y="170" font-size="10" text-anchor="middle" fill="#059669">Design-focused AI</text>
  
  <!-- Wix ADI -->
  <rect x="30" y="185" width="540" height="30" fill="#d1fae5" stroke="#22c55e" stroke-width="1" rx="3"/>
  <text x="45" y="205" font-size="11" font-weight="700" fill="#059669">Wix ADI</text>
  <text x="200" y="205" font-size="11" text-anchor="middle" fill="#059669">~60s</text>
  <text x="320" y="205" font-size="10" text-anchor="middle" fill="#059669">Mature AI</text>
  <text x="460" y="205" font-size="10" text-anchor="middle" fill="#059669">Full-featured</text>
  
  <!-- Bottom -->
  <rect x="30" y="225" width="540" height="25" fill="#1f2937" rx="3"/>
  <text x="300" y="242" font-size="11" font-weight="700" fill="#ffffff" text-anchor="middle">Hostwinds AI exists, but dedicated AI builders do it better</text>
</svg>