<svg width="700" height="380" viewBox="0 0 700 380" xmlns="http://www.w3.org/2000/svg">
  <rect width="700" height="380" fill="#f9fafb" rx="8"/>

  <text x="350" y="35" text-anchor="middle" font-size="18" font-weight="900" fill="#1f2937">Custom Domain Setup Speed Test</text>

  <!-- Timeline -->
  <g transform="translate(50, 80)">
    <!-- Step 1 -->
    <circle cx="50" cy="30" r="20" fill="#10b981"/>
    <text x="50" y="36" text-anchor="middle" font-size="18" font-weight="900" fill="#ffffff">1</text>
    <text x="50" y="70" text-anchor="middle" font-size="12" fill="#374151">Buy domain</text>
    <text x="50" y="85" text-anchor="middle" font-size="11" fill="#6b7280">(Namecheap)</text>

    <!-- Arrow -->
    <line x1="80" y1="30" x2="170" y2="30" stroke="#9ca3af" stroke-width="3"/>

    <!-- Step 2 -->
    <circle cx="200" cy="30" r="20" fill="#10b981"/>
    <text x="200" y="36" text-anchor="middle" font-size="18" font-weight="900" fill="#ffffff">2</text>
    <text x="200" y="70" text-anchor="middle" font-size="12" fill="#374151">Copy nameservers</text>
    <text x="200" y="85" text-anchor="middle" font-size="11" fill="#6b7280">(2 values)</text>

    <!-- Arrow -->
    <line x1="230" y1="30" x2="320" y2="30" stroke="#9ca3af" stroke-width="3"/>

    <!-- Step 3 -->
    <circle cx="350" cy="30" r="20" fill="#10b981"/>
    <text x="350" y="36" text-anchor="middle" font-size="18" font-weight="900" fill="#ffffff">3</text>
    <text x="350" y="70" text-anchor="middle" font-size="12" fill="#374151">Paste in Mixo</text>
    <text x="350" y="85" text-anchor="middle" font-size="11" fill="#6b7280">(Settings → Domain)</text>

    <!-- Arrow -->
    <line x1="380" y1="30" x2="470" y2="30" stroke="#9ca3af" stroke-width="3"/>

    <!-- Step 4 -->
    <circle cx="500" cy="30" r="20" fill="#10b981"/>
    <text x="500" y="36" text-anchor="middle" font-size="18" font-weight="900" fill="#ffffff">4</text>
    <text x="500" y="70" text-anchor="middle" font-size="12" fill="#374151">Wait for DNS</text>
    <text x="500" y="85" text-anchor="middle" font-size="11" fill="#6b7280">(~3 min)</text>

    <!-- Arrow -->
    <line x1="530" y1="30" x2="570" y2="30" stroke="#10b981" stroke-width="3"/>
  </g>

  <!-- Result -->
  <rect x="150" y="200" width="400" height="80" fill="#d1fae5" stroke="#10b981" stroke-width="3" rx="8"/>
  <text x="350" y="230" text-anchor="middle" font-size="16" font-weight="900" fill="#047857">✓ DOMAIN LIVE</text>
  <text x="350" y="255" text-anchor="middle" font-size="14" fill="#065f46">Total time: 4 minutes flat</text>

  <!-- Comparison -->
  <rect x="100" y="310" width="500" height="50" fill="#ffffff" stroke="#d1d5db" stroke-width="2" rx="4"/>
  <text x="350" y="330" text-anchor="middle" font-size="12" fill="#6b7280">Industry average: 15-30 minutes (complicated DNS setup)</text>
  <text x="350" y="348" text-anchor="middle" font-size="13" font-weight="700" fill="#10b981">Mixo makes it stupid simple</text>
</svg>