<svg width="600" height="300" viewBox="0 0 600 300" xmlns="http://www.w3.org/2000/svg">
  <rect width="600" height="300" fill="#fef3c7" rx="8"/>
  <text x="300" y="30" text-anchor="middle" font-size="18" font-weight="900" fill="#92400e">Simplicity vs Capability: Hard Limits</text>
  
  <!-- Easy tasks -->
  <rect x="30" y="55" width="265" height="130" fill="#d1fae5" stroke="#22c55e" stroke-width="2" rx="5"/>
  <text x="162" y="80" font-size="13" font-weight="900" fill="#059669" text-anchor="middle">What's Easy (5 min)</text>
  
  <text x="45" y="105" font-size="11" fill="#059669">✓ Basic site (5 pages)</text>
  <text x="45" y="125" font-size="11" fill="#059669">✓ Template selection</text>
  <text x="45" y="145" font-size="11" fill="#059669">✓ Color changes</text>
  <text x="45" y="165" font-size="11" fill="#059669">✓ Font presets</text>
  
  <rect x="45" y="175" width="230" height="20" fill="#22c55e" rx="2"/>
  <text x="162" y="188" font-size="9" font-weight="700" fill="#ffffff" text-anchor="middle">Genuinely easy</text>
  
  <!-- Hard limits -->
  <rect x="305" y="55" width="265" height="130" fill="#fee2e2" stroke="#dc2626" stroke-width="2" rx="5"/>
  <text x="437" y="80" font-size="13" font-weight="900" fill="#991b1b" text-anchor="middle">Hard Limits (20 min wall)</text>
  
  <text x="320" y="105" font-size="11" fill="#991b1b">✗ E-commerce: need upgrade</text>
  <text x="320" y="125" font-size="11" fill="#991b1b">✗ Custom domain: need upgrade</text>
  <text x="320" y="145" font-size="11" fill="#991b1b">✗ Blog: basic (no categories)</text>
  <text x="320" y="165" font-size="11" fill="#991b1b">✗ Layout: can't move sections</text>
  
  <rect x="320" y="175" width="230" height="20" fill="#dc2626" rx="2"/>
  <text x="437" y="188" font-size="9" font-weight="700" fill="#ffffff" text-anchor="middle">Stuck with template</text>
  
  <!-- Bottom verdict -->
  <rect x="30" y="200" width="540" height="80" fill="#1f2937" rx="3"/>
  <text x="300" y="225" font-size="13" font-weight="700" fill="#ffffff" text-anchor="middle">The Simplicity-Capability Tradeoff</text>
  
  <text x="150" y="250" font-size="10" fill="#22c55e" text-anchor="middle">✓ "I need a 3-page site now"</text>
  <text x="450" y="250" font-size="10" fill="#dc2626" text-anchor="middle">✗ "I need a custom website"</text>
  
  <text x="300" y="270" font-size="10" fill="#fbbf24" text-anchor="middle">Simplicity makes it fast AND makes it rigid</text>
  
  <text x="300" y="290" font-size="10" fill="#9ca3af" text-anchor="middle">Know the limits before you start</text>
</svg>