<svg width="700" height="400" viewBox="0 0 700 400" xmlns="http://www.w3.org/2000/svg">
  <rect width="700" height="400" fill="#f9fafb" rx="8"/>

  <text x="350" y="35" text-anchor="middle" font-size="18" font-weight="900" fill="#1f2937">The "Squarespace Look" Problem</text>

  <!-- Visual recognition test -->
  <rect x="50" y="70" width="600" height="180" fill="#ffffff" stroke="#d1d5db" stroke-width="2" rx="8"/>

  <!-- Three similar sites -->
  <rect x="80" y="100" width="150" height="120" fill="#1a1a1a" rx="4"/>
  <text x="155" y="145" text-anchor="middle" font-size="10" fill="#ffffff">Site A</text>
  <rect x="90" y="160" width="130" height="40" fill="#ffffff" rx="2"/>
  <text x="155" y="185" text-anchor="middle" font-size="8" fill="#1a1a1a">Button</text>

  <rect x="275" y="100" width="150" height="120" fill="#2d2d2d" rx="4"/>
  <text x="350" y="145" text-anchor="middle" font-size="10" fill="#ffffff">Site B</text>
  <rect x="285" y="160" width="130" height="40" fill="#ffffff" rx="2"/>
  <text x="350" y="185" text-anchor="middle" font-size="8" fill="#2d2d2d">Button</text>

  <rect x="470" y="100" width="150" height="120" fill="#1a1a1a" rx="4"/>
  <text x="545" y="145" text-anchor="middle" font-size="10" fill="#ffffff">Site C</text>
  <rect x="480" y="160" width="130" height="40" fill="#ffffff" rx="2"/>
  <text x="545" y="185" text-anchor="middle" font-size="8" fill="#1a1a1a">Button</text>

  <!-- Recognition -->
  <rect x="50" y="280" width="600" height="90" fill="#fef3c7" stroke="#f59e0b" stroke-width="2" rx="8"/>
  <text x="350" y="310" text-anchor="middle" font-size="15" font-weight="700" fill="#92400e">FRIEND: "That's Squarespace, right?"</text>
  <text x="350" y="335" text-anchor="middle" font-size="12" fill="#78350f">"The buttons. The spacing. The fonts. Everyone uses the same 3 templates."</text>
  <text x="350" y="355" text-anchor="middle" font-size="11" font-weight="700" fill="#dc2626">Beautiful? Yes. Unique? No.</text>
</svg>