<svg width="600" height="280" viewBox="0 0 600 280" xmlns="http://www.w3.org/2000/svg">
  <rect width="600" height="280" fill="#fef3c7" rx="8"/>
  <text x="300" y="30" text-anchor="middle" font-size="18" font-weight="900" fill="#92400e">AI Generation vs Template: Templates Win</text>
  
  <!-- AI process -->
  <rect x="30" y="55" width="260" height="130" fill="#fef3c7" stroke="#f59e0b" stroke-width="2" rx="5"/>
  <text x="160" y="80" font-size="13" font-weight="900" fill="#b45309" text-anchor="middle">AI Process</text>
  
  <text x="50" y="105" font-size="10" font-weight="700" fill="#b45309">Time: 90 seconds</text>
  <text x="50" y="125" font-size="10" fill="#b45309">• Answered 5 questions</text>
  <text x="50" y="145" font-size="10" fill="#b45309">• Got generated site</text>
  
  <rect x="50" y="155" width="220" height="20" fill="#dc2626" rx="2"/>
  <text x="160" y="168" font-size="9" font-weight="700" fill="#ffffff" text-anchor="middle">Result: Generic layouts</text>
  
  <text x="50" y="185" font-size="9" fill="#b45309">AI copy needed rewriting</text>
  
  <!-- Template process -->
  <rect x="310" y="55" width="260" height="130" fill="#d1fae5" stroke="#22c55e" stroke-width="2" rx="5"/>
  <text x="440" y="80" font-size="13" font-weight="900" fill="#059669" text-anchor="middle">Template Process</text>
  
  <text x="330" y="105" font-size="10" font-weight="700" fill="#059669">Time: 2 minutes (30s longer)</text>
  <text x="330" y="125" font-size="10" fill="#059669">• Picked template</text>
  <text x="330" y="145" font-size="10" fill="#059669">• Replaced content</text>
  
  <rect x="330" y="155" width="220" height="20" fill="#22c55e" rx="2"/>
  <text x="440" y="168" font-size="9" font-weight="700" fill="#ffffff" text-anchor="middle">Result: Professional design</text>
  
  <text x="330" y="185" font-size="9" fill="#059669">Better visual hierarchy</text>
  
  <!-- Key insight -->
  <rect x="30" y="195" width="540" height="50" fill="#1f2937" rx="3"/>
  <text x="300" y="215" font-size="12" font-weight="700" fill="#ffffff" text-anchor="middle">The AI Reality</text>
  <text x="300" y="235" font-size="10" fill="#fbbf24" text-anchor="middle">AI doesn't add design intelligence — just fast content filling</text>
  <text x="300" y="250" font-size="10" fill="#9ca3af" text-anchor="middle">Templates are faster AND better for one-page sites</text>
  
  <!-- Bottom verdict -->
  <rect x="30" y="255" width="540" height="20" fill="#059669" rx="2"/>
  <text x="300" y="269" font-size="10" font-weight="700" fill="#ffffff" text-anchor="middle">Skip the AI. Start with a template.</text>
</svg>