<svg width="600" height="280" viewBox="0 0 600 280" xmlns="http://www.w3.org/2000/svg">
  <rect width="600" height="280" fill="#fce7f3" rx="8"/>
  <text x="300" y="30" text-anchor="middle" font-size="18" font-weight="900" fill="#9f1239">AI Generation: Best of Both Worlds</text>
  
  <!-- Test prompt -->
  <rect x="30" y="55" width="540" height="40" fill="#1f2937" rx="3"/>
  <text x="300" y="75" font-size="10" fill="#9ca3af" text-anchor="middle">Test Prompt:</text>
  <text x="300" y="90" font-size="11" fill="#ffffff" text-anchor="middle">"SaaS dashboard with sidebar navigation, stats cards, and data table"</text>
  
  <!-- Output quality -->
  <rect x="30" y="105" width="540" height="100" fill="#ffffff" stroke="#ec4899" stroke-width="2" rx="5"/>
  <text x="300" y="128" font-size="12" font-weight="700" fill="#9f1239" text-anchor="middle">Output Quality Over Time</text>
  
  <rect x="50" y="140" width="150" height="55" fill="#fce7f3" stroke="#ec4899" stroke-width="1" rx="3"/>
  <text x="125" y="160" font-size="13" font-weight="900" fill="#9f1239" text-anchor="middle">First Pass</text>
  <text x="125" y="178" font-size="9" fill="#9f1239" text-anchor="middle">70% match</text>
  <text x="60" y="195" font-size="8" fill="#9f1239">Generated structure</text>
  <text x="60" y="207" font-size="8" fill="#9f1239">All elements present</text>
  
  <rect x="220" y="140" width="150" height="55" fill="#fbcfe8" stroke="#ec4899" stroke-width="1" rx="3"/>
  <text x="295" y="160" font-size="13" font-weight="900" fill="#9f1239" text-anchor="middle">After 10 Min</text>
  <text x="295" y="178" font-size="9" fill="#9f1239" text-anchor="middle">90% match</text>
  <text x="230" y="195" font-size="8" fill="#9f1239">Easy visual refine:</text>
  <text x="230" y="207" font-size="8" fill="#9f1239">Column widths, colors,</text>
  <text x="230" y="219" font-size="8" fill="#9f1239">table order</text>
  
  <rect x="390" y="140" width="150" height="55" fill="#f9a8d4" stroke="#ec4899" stroke-width="2" rx="3"/>
  <text x="465" y="160" font-size="13" font-weight="900" fill="#ffffff" text-anchor="middle">Result</text>
  <text x="465" y="178" font-size="9" fill="#ffffff" text-anchor="middle">Vision achieved</text>
  <text x="400" y="195" font-size="8" fill="#ffffff">Generate base</text>
  <text x="400" y="207" font-size="8" fill="#ffffff">then refine visually</text>
  <text x="400" y="219" font-size="8" fill="#ffffff">AND in code</text>
  
  <!-- Comparison -->
  <rect x="30" y="215" width="540" height="45" fill="#1f2937" rx="3"/>
  <text x="300" y="235" font-size="11" font-weight="700" fill="#ffffff" text-anchor="middle">AI Tool Comparison</text>
  
  <text x="100" y="255" font-size="10" fill="#9ca3af" text-anchor="middle">v0.dev</text>
  <text x="100" y="270" font-size="9" fill="#f59e0b" text-anchor="middle">Prompt-only</text>
  
  <text x="220" y="255" font-size="10" fill="#9ca3af" text-anchor="middle">Framer AI</text>
  <text x="220" y="270" font-size="9" fill="#3b82f6" text-anchor="middle">More polished, less code control</text>
  
  <text x="380" y="255" font-size="10" fill="#22c55e" text-anchor="middle">TeleportHQ</text>
  <text x="380" y="270" font-size="9" fill="#22c55e" text-anchor="middle">Generate + Visual + Code refine</text>
  
  <!-- Bottom verdict -->
  <rect x="30" y="270" width="540" height="5" fill="#9f1239" rx="2"/>
</svg>