<svg width="600" height="280" viewBox="0 0 600 280" xmlns="http://www.w3.org/2000/svg">
  <rect width="600" height="280" fill="#d1fae5" rx="8"/>
  <text x="300" y="30" text-anchor="middle" font-size="18" font-weight="900" fill="#059669">Phone Support: The Only Genuine Advantage</text>
  
  <!-- The test -->
  <rect x="30" y="55" width="540" height="120" fill="#ffffff" stroke="#22c55e" stroke-width="2" rx="5"/>
  <text x="300" y="80" font-size="12" font-weight="700" fill="#059669" text-anchor="middle">Called 3 Times: Technical, Billing, Cancellation</text>
  
  <rect x="50" y="95" width="150" height="65" fill="#d1fae5" stroke="#22c55e" stroke-width="1" rx="3"/>
  <text x="125" y="115" font-size="10" font-weight="700" fill="#059669" text-anchor="middle">Call 1: Technical</text>
  <text x="60" y="135" font-size="9" fill="#059669">Wait: 3 min</text>
  <text x="60" y="150" font-size="9" fill="#22c55e">Resolved: Yes</text>
  
  <rect x="220" y="95" width="150" height="65" fill="#d1fae5" stroke="#22c55e" stroke-width="1" rx="3"/>
  <text x="295" y="115" font-size="10" font-weight="700" fill="#059669" text-anchor="middle">Call 2: Billing</text>
  <text x="230" y="135" font-size="9" fill="#059669">Wait: 2 min</text>
  <text x="230" y="150" font-size="9" fill="#22c55e">Resolved: Yes</text>
  
  <rect x="390" y="95" width="150" height="65" fill="#fef3c7" stroke="#f59e0b" stroke-width="1" rx="3"/>
  <text x="465" y="115" font-size="10" font-weight="700" fill="#b45309" text-anchor="middle">Call 3: Cancel</text>
  <text x="400" y="135" font-size="9" fill="#b45309">Wait: 15 min</text>
  <text x="400" y="150" font-size="9" fill="#f59e0b">"Retention script"</text>
  
  <text x="300" y="175" font-size="9" fill="#047857" text-anchor="middle">2/3 resolved competently • Cancellation required persistence</text>
  
  <!-- The verdict -->
  <rect x="30" y="185" width="540" height="60" fill="#1f2937" rx="3"/>
  <text x="300" y="208" font-size="11" font-weight="700" fill="#ffffff" text-anchor="middle">Is Phone Support Worth $10-15/mo Premium?</text>
  
  <text x="150" y="230" font-size="10" fill="#fbbf24" text-anchor="middle">If you need hand-holding:</text>
  <text x="150" y="248" font-size="9" fill="#fbbf24" text-anchor="middle">Maybe worth it</text>
  
  <text x="450" y="230" font-size="10" fill="#22c55e" text-anchor="middle">If you're technical:</text>
  <text x="450" y="248" font-size="9" fill="#22c55e" text-anchor="middle">Use Framer + save money</text>
  
  <!-- Bottom verdict -->
  <rect x="30" y="255" width="540" height="20" fill="#059669" rx="2"/>
  <text x="300" y="269" font-size="10" font-weight="700" fill="#ffffff" text-anchor="middle">Phone support is real. But is it worth overpaying for everything else? Only for non-technical users.</text>
</svg>