<svg width="600" height="280" viewBox="0 0 600 280" xmlns="http://www.w3.org/2000/svg">
  <rect width="600" height="280" fill="#fee2e2" rx="8"/>
  <text x="300" y="30" text-anchor="middle" font-size="18" font-weight="900" fill="#991b1b">Pricing: 2015 Prices for 2015 Features</text>
  
  <!-- Web.com pricing -->
  <rect x="30" y="55" width="260" height="100" fill="#ffffff" stroke="#dc2626" stroke-width="2" rx="5"/>
  <text x="160" y="80" font-size="13" font-weight="900" fill="#991b1b" text-anchor="middle">Web.com</text>
  
  <text x="50" y="105" font-size="10" fill="#991b1b">$20/mo: Dated templates</text>
  <text x="50" y="125" font-size="10" fill="#991b1b">$30/mo: Same dated templates</text>
  <text x="50" y="145" font-size="9" fill="#b45309">No code export</text>
  
  <rect x="50" y="152" width="220" height="20" fill="#dc2626" rx="2"/>
  <text x="160" y="165" font-size="9" font-weight="700" fill="#ffffff" text-anchor="middle">2015-era pricing</text>
  
  <!-- Competitors -->
  <rect x="310" y="55" width="260" height="100" fill="#d1fae5" stroke="#22c55e" stroke-width="2" rx="5"/>
  <text x="440" y="80" font-size="13" font-weight="900" fill="#059669" text-anchor="middle">Better Value Exists</text>
  
  <text x="330" y="105" font-size="10" fill="#059669">Framer: $15-20/mo</text>
  <text x="330" y="120" font-size="9" fill="#047857">Premium design + code export</text>
  
  <text x="330" y="138" font-size="10" fill="#059669">Squarespace: $16-23/mo</text>
  <text x="330" y="153" font-size="9" fill="#047857">Excellent templates</text>
  
  <text x="330" y="171" font-size="10" fill="#059669">10Web: $10-15/mo</text>
  <text x="330" y="186" font-size="9" fill="#047857">WordPress power</text>
  
  <!-- Value gap -->
  <rect x="30" y="165" width="540" height="55" fill="#1f2937" rx="3"/>
  <text x="300" y="188" font-size="11" font-weight="700" fill="#ffffff" text-anchor="middle">The Overpayment Reality</text>
  
  <text x="150" y="210" font-size="10" fill="#fbbf24" text-anchor="middle">Web.com</text>
  <text x="150" y="228" font-size="9" fill="#fbbf24" text-anchor="middle">$20-30/mo</text>
  
  <text x="300" y="210" font-size="10" fill="#dc2626" text-anchor="middle">Overpaying by 50%+</text>
  <text x="300" y="228" font-size="9" fill="#9ca3af" text-anchor="middle">For worse features</text>
  
  <text x="450" y="210" font-size="10" fill="#22c55e" text-anchor="middle">Competitors</text>
  <text x="450" y="228" font-size="9" fill="#22c55e" text-anchor="middle">$10-23/mo</text>
  
  <!-- Bottom verdict -->
  <rect x="30" y="230" width="540" height="45" fill="#dc2626" rx="3"/>
  <text x="300" y="250" font-size="10" font-weight="700" fill="#ffffff" text-anchor="middle">Only justification: phone support + "we've always used it" inertia</text>
  <text x="300" y="268" font-size="9" fill="#fbbf24" text-anchor="middle">Otherwise: rebuild on Framer/Squarespace/10Web, save money, get better results</text>
</svg>