<svg width="600" height="280" viewBox="0 0 600 280" xmlns="http://www.w3.org/2000/svg">
  <rect width="600" height="280" fill="#dbeafe" rx="8"/>
  <text x="300" y="30" text-anchor="middle" font-size="18" font-weight="900" fill="#1e40af">EU Hosting & GDPR: Genuine Compliance</text>
  
  <!-- EU hosting -->
  <rect x="30" y="55" width="260" height="130" fill="#ffffff" stroke="#3b82f6" stroke-width="2" rx="5"/>
  <text x="160" y="80" font-size="12" font-weight="900" fill="#1e40af" text-anchor="middle">EU Data Centers</text>
  
  <text x="50" y="105" font-size="10" fill="#1e40af">✓ Czech Republic (Prague)</text>
  <text x="50" y="125" font-size="10" fill="#1e40af">✓ Germany</text>
  <text x="50" y="145" font-size="10" fill="#1e40af">✓ Other EU locations</text>
  
  <rect x="50" y="160" width="220" height="15" fill="#3b82f6" rx="2"/>
  <text x="160" y="171" font-size="9" font-weight="700" fill="#ffffff" text-anchor="middle">Data stays in EU</text>
  
  <!-- GDPR -->
  <rect x="310" y="55" width="260" height="130" fill="#ffffff" stroke="#3b82f6" stroke-width="2" rx="5"/>
  <text x="440" y="80" font-size="12" font-weight="900" fill="#1e40af" text-anchor="middle">GDPR Compliance</text>
  
  <text x="330" y="105" font-size="10" fill="#1e40af">✓ Privacy policy generator</text>
  <text x="330" y="125" font-size="10" fill="#1e40af">✓ Cookie consent tools</text>
  <text x="330" y="145" font-size="10" fill="#1e40af">✓ Data processing agreements</text>
  
  <rect x="330" y="160" width="220" height="15" fill="#3b82f6" rx="2"/>
  <text x="440" y="171" font-size="9" font-weight="700" fill="#ffffff" text-anchor="middle">Built for EU businesses</text>
  
  <!-- Comparison -->
  <rect x="30" y="195" width="540" height="55" fill="#1f2937" rx="3"/>
  <text x="300" y="218" font-size="11" font-weight="700" fill="#ffffff" text-anchor="middle">US-Based Competitors</text>
  
  <text x="150" y="238" font-size="10" fill="#f59e0b" text-anchor="middle">Wix / Squarespace / Framer</text>
  <text x="150" y="255" font-size="9" fill="#f59e0b" text-anchor="middle">US data centers</text>
  
  <text x="450" y="238" font-size="10" fill="#22c55e" text-anchor="middle">Webnode</text>
  <text x="450" y="255" font-size="9" fill="#22c55e" text-anchor="middle">EU data centers</text>
  
  <!-- Bottom verdict -->
  <rect x="30" y="260" width="540" height="15" fill="#1e40af" rx="2"/>
  <text x="300" y="271" font-size="9" font-weight="700" fill="#ffffff" text-anchor="middle">For EU businesses with GDPR concerns: Webnode is the safer choice</text>
</svg>