<svg width="700" height="400" viewBox="0 0 700 400" xmlns="http://www.w3.org/2000/svg">
  <rect width="700" height="400" fill="#f9fafb" rx="8"/>

  <text x="350" y="35" text-anchor="middle" font-size="18" font-weight="900" fill="#1f2937">Wix App Ecosystem: Hidden Costs Add Up</text>

  <!-- Base plan -->
  <rect x="50" y="70" width="600" height="50" fill="#0c6eff" rx="4"/>
  <text x="80" y="100" font-size="14" font-weight="700" fill="#ffffff">Wix Base Plan</text>
  <text x="600" y="100" text-anchor="end" font-size="16" font-weight="900" fill="#ffffff">$23/mo</text>

  <!-- App costs -->
  <g transform="translate(50, 140)">
    <rect x="0" y="0" width="600" height="40" fill="#ffffff" stroke="#d1d5db" stroke-width="1" rx="4"/>
    <text x="20" y="25" font-size="13" fill="#374151">Bookings System</text>
    <text x="580" y="25" text-anchor="end" font-size="14" font-weight="700" fill="#dc2626">+$27/mo</text>

    <rect x="0" y="50" width="600" height="40" fill="#ffffff" stroke="#d1d5db" stroke-width="1" rx="4"/>
    <text x="20" y="75" font-size="13" fill="#374151">Email Marketing</text>
    <text x="580" y="75" text-anchor="end" font-size="14" font-weight="700" fill="#dc2626">+$11/mo</text>

    <rect x="0" y="100" width="600" height="40" fill="#ffffff" stroke="#d1d5db" stroke-width="1" rx="4"/>
    <text x="20" y="125" font-size="13" fill="#374151">Instagram Feed</text>
    <text x="580" y="125" text-anchor="end" font-size="14" font-weight="700" fill="#dc2626">+$5/mo</text>

    <rect x="0" y="150" width="600" height="40" fill="#ffffff" stroke="#d1d5db" stroke-width="1" rx="4"/>
    <text x="20" y="175" font-size="13" fill="#374151">Custom Domain</text>
    <text x="580" y="175" text-anchor="end" font-size="14" font-weight="700" fill="#dc2626">+$9/mo</text>
  </g>

  <!-- Total -->
  <rect x="50" y="340" width="600" height="45" fill="#dc2626" rx="4"/>
  <text x="80" y="367" font-size="16" font-weight="900" fill="#ffffff">TOTAL MONTHLY COST</text>
  <text x="600" y="367" text-anchor="end" font-size="20" font-weight="900" fill="#ffffff">$75/mo</text>

  <text x="350" y="395" text-anchor="middle" font-size="11" fill="#6b7280">Apps work perfectly. But every feature adds monthly cost. "Free" builder becomes expensive fast.</text>
</svg>