<svg width="600" height="320" viewBox="0 0 600 320" xmlns="http://www.w3.org/2000/svg">
  <rect width="600" height="320" fill="#eff6ff" rx="8"/>
  <text x="300" y="30" text-anchor="middle" font-size="18" font-weight="900" fill="#1e40af">Booking → CRM: Seamless Integration</text>

  <rect x="20" y="55" width="115" height="45" fill="#1e40af" rx="4"/>
  <text x="77" y="75" text-anchor="middle" font-size="10" font-weight="700" fill="#ffffff">Client visits</text>
  <text x="77" y="90" text-anchor="middle" font-size="9" fill="#ffffff">website</text>

  <text x="155" y="82" font-size="20">→</text>

  <rect x="175" y="55" width="115" height="45" fill="#1e3a8a" rx="4"/>
  <text x="232" y="75" text-anchor="middle" font-size="10" font-weight="700" fill="#ffffff">Clicks "book"</text>
  <text x="232" y="90" text-anchor="middle" font-size="9" fill="#ffffff">consultation</text>

  <text x="310" y="82" font-size="20">→</text>

  <rect x="330" y="55" width="115" height="45" fill="#1e40af" rx="4"/>
  <text x="387" y="75" text-anchor="middle" font-size="10" font-weight="700" fill="#ffffff">Selects time</text>
  <text x="387" y="90" text-anchor="middle" font-size="9" fill="#ffffff">slot</text>

  <text x="465" y="82" font-size="20">→</text>

  <rect x="485" y="55" width="115" height="45" fill="#1e3a8a" rx="4"/>
  <text x="542" y="75" text-anchor="middle" font-size="10" font-weight="700" fill="#ffffff">Enters info</text>
  <text x="542" y="90" text-anchor="middle" font-size="9" fill="#ffffff">+ submits</text>

  <text x="300" y="120" text-anchor="middle" font-size="16">↓</text>

  <rect x="30" y="135" width="540" height="170" fill="#ffffff" stroke="#22c55e" stroke-width="2" rx="6"/>
  <text x="300" y="160" text-anchor="middle" font-size="13" font-weight="900" fill="#166534">Backend: Everything Connected</text>

  <text x="60" y="185" font-size="10" fill="#059669">✓ Booking appears in scheduler</text>
  <text x="60" y="205" font-size="10" fill="#059669">✓ Contact info auto-added to CRM</text>
  <text x="60" y="225" font-size="10" fill="#059669">✓ Notification sent to email</text>
  <text x="60" y="245" font-size="10" fill="#059669">✓ No manual data entry</text>

  <rect x="320" y="180" width="230" height="55" fill="#ecfdf5" stroke="#22c55e" stroke-width="1" rx="4"/>
  <text x="435" y="200" text-anchor="middle" font-size="11" font-weight="700" fill="#166534">Time Savings</text>
  <text x="435" y="218" text-anchor="middle" font-size="10" fill="#059669">5-10 minutes per client</text>
  <text x="435" y="233" text-anchor="middle" font-size="9" fill="#059669">(vs Calendly + separate CRM)</text>

  <rect x="30" y="315" width="540" height="1" fill="#e5e7eb"/>
  <text x="300" y="300" text-anchor="middle" font-size="11" font-weight="700" fill="#1e40af">For therapists/consultants booking 5-20 clients/week: saves hours weekly</text>
</svg>