<svg width="600" height="300" viewBox="0 0 600 300" xmlns="http://www.w3.org/2000/svg">
  <rect width="600" height="300" fill="#fef3c7" rx="8"/>
  <text x="300" y="30" text-anchor="middle" font-size="18" font-weight="900" fill="#92400e">Template Quality vs Price: The Gap</text>
  
  <!-- Framer bar -->
  <rect x="50" y="70" width="130" height="25" fill="#22c55e" rx="3"/>
  <text x="115" y="88" font-size="12" font-weight="700" fill="#ffffff" text-anchor="middle">Framer</text>
  <rect x="200" y="70" width="360" height="25" fill="#d1fae5" stroke="#22c55e" stroke-width="1" rx="3"/>
  <text x="210" y="88" font-size="11" font-weight="700" fill="#059669">Quality: 9/10</text>
  <text x="380" y="88" font-size="13" font-weight="900" fill="#059669" text-anchor="middle">$15/mo</text>
  <text x="540" y="88" font-size="10" fill="#059669" text-anchor="end">BEST VALUE</text>
  
  <!-- Squarespace bar -->
  <rect x="50" y="110" width="130" height="25" fill="#3b82f6" rx="3"/>
  <text x="115" y="128" font-size="12" font-weight="700" fill="#ffffff" text-anchor="middle">Squarespace</text>
  <rect x="200" y="110" width="360" height="25" fill="#dbeafe" stroke="#3b82f6" stroke-width="1" rx="3"/>
  <text x="210" y="128" font-size="11" font-weight="700" fill="#1d4ed8">Quality: 9/10</text>
  <text x="380" y="128" font-size="13" font-weight="900" fill="#1d4ed8" text-anchor="middle">$23/mo</text>
  <text x="540" y="128" font-size="10" fill="#1d4ed8" text-anchor="end">Premium templates</text>
  
  <!-- Bookmark bar (highlighted) -->
  <rect x="50" y="150" width="130" height="25" fill="#dc2626" rx="3"/>
  <text x="115" y="168" font-size="12" font-weight="700" fill="#ffffff" text-anchor="middle">Bookmark</text>
  <rect x="200" y="150" width="360" height="25" fill="#fee2e2" stroke="#dc2626" stroke-width="2" rx="3"/>
  <text x="210" y="168" font-size="11" font-weight="700" fill="#991b1b">Quality: 7/10</text>
  <text x="380" y="168" font-size="13" font-weight="900" fill="#dc2626" text-anchor="middle">$99/mo</text>
  <text x="540" y="168" font-size="10" font-weight="700" fill="#dc2626" text-anchor="end">6× Framer price</text>
  
  <!-- Gap visualization -->
  <rect x="30" y="195" width="540" height="50" fill="#1f2937" rx="3"/>
  <text x="300" y="215" font-size="13" font-weight="700" fill="#ffffff" text-anchor="middle">The Reality Check</text>
  <text x="300" y="235" font-size="11" fill="#fbbf24" text-anchor="middle">Bookmark costs 6× Framer for worse templates</text>
  
  <!-- Value metrics -->
  <text x="50" y="275" font-size="10" fill="#374151">At $99/mo, Bookmark should:</text>
  <text x="50" y="290" font-size="10" fill="#dc2626">✗ Blow Framer away (doesn't)</text>
  <text x="200" y="290" font-size="10" fill="#dc2626">✗ Beat Squarespace (nope)</text>
  <text x="380" y="290" font-size="10" fill="#dc2626">✗ Be premium (it's mid-tier)</text>
</svg>