<svg width="600" height="280" viewBox="0 0 600 280" xmlns="http://www.w3.org/2000/svg">
  <rect width="600" height="280" fill="#fef3c7" rx="8"/>
  <text x="300" y="30" text-anchor="middle" font-size="18" font-weight="900" fill="#92400e">Template Library: The Gap</text>
  
  <!-- Codedesign -->
  <rect x="50" y="60" width="130" height="25" fill="#dc2626" rx="3"/>
  <text x="115" y="78" font-size="12" font-weight="700" fill="#ffffff" text-anchor="middle">Codedesign</text>
  <rect x="200" y="60" width="360" height="25" fill="#fee2e2" stroke="#dc2626" stroke-width="1" rx="3"/>
  <text x="210" y="78" font-size="11" font-weight="700" fill="#991b1b">~20-25 templates</text>
  <text x="400" y="78" font-size="11" fill="#991b1b">Generic, forgettable</text>
  <text x="540" y="78" font-size="10" fill="#dc2626" text-anchor="end">$29+/mo</text>
  
  <!-- 10Web -->
  <rect x="50" y="95" width="130" height="25" fill="#22c55e" rx="3"/>
  <text x="115" y="113" font-size="12" font-weight="700" fill="#ffffff" text-anchor="middle">10Web</text>
  <rect x="200" y="95" width="360" height="25" fill="#d1fae5" stroke="#22c55e" stroke-width="1" rx="3"/>
  <text x="210" y="113" font-size="11" font-weight="700" fill="#059669">100+ templates</text>
  <text x="400" y="113" font-size="11" fill="#059669">WordPress power</text>
  <text x="540" y="113" font-size="10" fill="#22c55e" text-anchor="end">$10-20/mo</text>
  
  <!-- Framer -->
  <rect x="50" y="130" width="130" height="25" fill="#3b82f6" rx="3"/>
  <text x="115" y="148" font-size="12" font-weight="700" fill="#ffffff" text-anchor="middle">Framer</text>
  <rect x="200" y="130" width="360" height="25" fill="#dbeafe" stroke="#3b82f6" stroke-width="1" rx="3"/>
  <text x="210" y="148" font-size="11" font-weight="700" fill="#1d4ed8">Hundreds</text>
  <text x="400" y="148" font-size="11" fill="#1d4ed8">Stunning, modern</text>
  <text x="540" y="148" font-size="10" fill="#3b82f6" text-anchor="end">$15-20/mo</text>
  
  <!-- Comparison stats -->
  <rect x="30" y="170" width="540" height="75" fill="#1f2937" rx="3"/>
  <text x="300" y="195" font-size="13" font-weight="700" fill="#ffffff" text-anchor="middle">The Template Reality</text>
  
  <text x="50" y="220" font-size="11" fill="#ffffff">Codedesign: 1/5th the options</text>
  <text x="250" y="220" font-size="11" fill="#fbbf24">Same/higher price</text>
  <text x="450" y="220" font-size="11" fill="#dc2626">Worse quality</text>
  
  <text x="50" y="240" font-size="10" fill="#9ca3af">Visual variety: Low (similar layouts, colors)</text>
  <text x="350" y="240" font-size="10" fill="#9ca3af">Modern templates: ~2 acceptable for 2024</text>
  
  <!-- Bottom verdict -->
  <text x="300" y="270" font-size="10" fill="#374151" text-anchor="middle">Premium pricing for budget features with no brand recognition</text>
</svg>