<svg width="600" height="260" viewBox="0 0 600 260" xmlns="http://www.w3.org/2000/svg">
  <rect width="600" height="260" fill="#fef3c7" rx="8"/>
  <text x="300" y="30" text-anchor="middle" font-size="18" font-weight="900" fill="#92400e">Customer Support: Genuine Advantage</text>
  
  <!-- Hosting company support -->
  <rect x="30" y="55" width="265" height="150" fill="#d1fae5" stroke="#22c55e" stroke-width="2" rx="5"/>
  <text x="162" y="80" font-size="13" font-weight="900" fill="#059669" text-anchor="middle">Hosting Company Support</text>
  
  <text x="45" y="110" font-size="11" font-weight="700" fill="#059669">Hostwinds Support:</text>
  <text x="45" y="130" font-size="10" fill="#059669">✓ 24/7 availability</text>
  <text x="45" y="145" font-size="10" fill="#059669">✓ Technical expertise</text>
  <text x="45" y="160" font-size="10" fill="#059669">✓ Handles hosting + builder</text>
  <text x="45" y="175" font-size="10" fill="#059669">✓ One contact for everything</text>
  
  <rect x="45" y="185" width="230" height="20" fill="#22c55e" rx="2"/>
  <text x="162" y="198" font-size="9" font-weight="700" fill="#ffffff" text-anchor="middle">Better than pure builders</text>
  
  <!-- Pure builder support -->
  <rect x="305" y="55" width="265" height="150" fill="#fee2e2" stroke="#dc2626" stroke-width="2" rx="5"/>
  <text x="437" y="80" font-size="13" font-weight="900" fill="#991b1b" text-anchor="middle">Pure Builder Support</text>
  
  <text x="320" y="110" font-size="11" font-weight="700" fill="#991b1b">Framer/Wix Support:</text>
  <text x="320" y="130" font-size="10" fill="#991b1b">✗ Limited to builder issues</text>
  <text x="320" y="145" font-size="10" fill="#991b1b">✗ Can't help with hosting</text>
  <text x="320" y="160" font-size="10" fill="#991b1b">✗ Multiple support contacts</text>
  <text x="320" y="175" font-size="10" fill="#991b1b">✗ "Not our problem" for hosting</text>
  
  <rect x="320" y="185" width="230" height="20" fill="#dc2626" rx="2"/>
  <text x="437" y="198" font-size="9" font-weight="700" fill="#ffffff" text-anchor="middle">Builder-focused only</text>
  
  <!-- Bottom verdict -->
  <rect x="30" y="220" width="540" height="25" fill="#1f2937" rx="3"/>
  <text x="300" y="237" font-size="11" font-weight="700" fill="#ffffff" text-anchor="middle">Support is Hostwinds' one genuine advantage over dedicated builders</text>
</svg>