<svg width="600" height="260" viewBox="0 0 600 260" xmlns="http://www.w3.org/2000/svg">
  <rect width="600" height="260" fill="#fef3c7" rx="8"/>
  <text x="300" y="30" text-anchor="middle" font-size="18" font-weight="900" fill="#92400e">Jimdo Dolphin AI: Smart But Constrained</text>
  
  <!-- Process comparison -->
  <rect x="30" y="55" width="540" height="25" fill="#1f2937" rx="3"/>
  <text x="45" y="72" font-size="11" font-weight="700" fill="#ffffff">Tool</text>
  <text x="150" y="72" font-size="11" font-weight="700" fill="#ffffff" text-anchor="middle">Questions</text>
  <text x="280" y="72" font-size="11" font-weight="700" fill="#ffffff" text-anchor="middle">Speed</text>
  <text x="410" y="72" font-size="11" font-weight="700" fill="#ffffff" text-anchor="middle">Quality</text>
  <text x="540" y="72" font-size="11" font-weight="700" fill="#ffffff" text-anchor="end">Design</text>
  
  <!-- Jimdo -->
  <rect x="30" y="85" width="540" height="30" fill="#d1fae5" stroke="#22c55e" stroke-width="1" rx="3"/>
  <text x="45" y="105" font-size="11" font-weight="700" fill="#059669">Jimdo</text>
  <text x="150" y="105" font-size="11" text-anchor="middle" fill="#059669">5-6 (detailed)</text>
  <text x="280" y="105" font-size="11" text-anchor="middle" fill="#059669">90-120s</text>
  <text x="410" y="105" font-size="10" text-anchor="middle" fill="#059669">Functional</text>
  <text x="540" y="105" font-size="10" fill="#059669" text-anchor="end">2018 era</text>
  
  <!-- Durable -->
  <rect x="30" y="120" width="540" height="30" fill="#dbeafe" stroke="#3b82f6" stroke-width="1" rx="3"/>
  <text x="45" y="140" font-size="11" font-weight="700" fill="#1d4ed8">Durable</text>
  <text x="150" y="140" font-size="11" text-anchor="middle" fill="#1d4ed8">3 (basic)</text>
  <text x="280" y="140" font-size="11" text-anchor="middle" fill="#1d4ed8">30s</text>
  <text x="410" y="140" font-size="10" text-anchor="middle" fill="#1d4ed8">Better layouts</text>
  <text x="540" y="140" font-size="10" fill="#3b82f6" text-anchor="end">Modern</text>
  
  <!-- Framer -->
  <rect x="30" y="155" width="540" height="30" fill="#dbeafe" stroke="#3b82f6" stroke-width="2" rx="3"/>
  <text x="45" y="175" font-size="11" font-weight="700" fill="#1d4ed8">Framer AI</text>
  <text x="150" y="175" font-size="11" text-anchor="middle" fill="#1d4ed8">4-5</text>
  <text x="280" y="175" font-size="11" text-anchor="middle" fill="#1d4ed8">~45s</text>
  <text x="410" y="175" font-size="10" text-anchor="middle" fill="#1d4ed8">Superior</text>
  <text x="540" y="175" font-size="10" fill="#3b82f6" text-anchor="end">Premium</text>
  
  <!-- Verdict -->
  <rect x="30" y="195" width="540" height="45" fill="#1f2937" rx="3"/>
  <text x="300" y="215" font-size="12" font-weight="700" fill="#ffffff" text-anchor="middle">The Verdict</text>
  <text x="300" y="235" font-size="10" fill="#fbbf24" text-anchor="middle">Jimdo asks smarter questions but constrained by dated templates</text>
  
  <text x="300" y="255" font-size="10" fill="#374151" text-anchor="middle">Intelligence in content planning, not in design</text>
</svg>