<svg width="600" height="320" viewBox="0 0 600 320" xmlns="http://www.w3.org/2000/svg">
  <rect width="600" height="320" fill="#f9fafb" rx="8"/>
  <text x="300" y="35" text-anchor="middle" font-size="18" font-weight="900" fill="#1f2937">30-Second Generation: Reality Check</text>
  <text x="300" y="60" text-anchor="middle" font-size="13" fill="#6b7280">Tested across 5 different business types</text>

  
    <text x="30" y="105" font-size="13" font-weight="600" fill="#374151">Coffee Shop</text>
    <rect x="160" y="90" width="336" height="25" fill="#10b981" rx="4"/>
    <text x="506" y="107" font-size="14" font-weight="700" fill="#10b981">28s</text>

    <text x="30" y="150" font-size="13" font-weight="600" fill="#374151">HVAC Service</text>
    <rect x="160" y="135" width="408" height="25" fill="#3b82f6" rx="4"/>
    <text x="578" y="152" font-size="14" font-weight="700" fill="#3b82f6">34s</text>

    <text x="30" y="195" font-size="13" font-weight="600" fill="#374151">Law Firm</text>
    <rect x="160" y="180" width="372" height="25" fill="#8b5cf6" rx="4"/>
    <text x="542" y="197" font-size="14" font-weight="700" fill="#8b5cf6">31s</text>

    <text x="30" y="240" font-size="13" font-weight="600" fill="#374151">Portfolio</text>
    <rect x="160" y="225" width="312" height="25" fill="#10b981" rx="4"/>
    <text x="482" y="242" font-size="14" font-weight="700" fill="#10b981">26s</text>

    <text x="30" y="285" font-size="13" font-weight="600" fill="#374151">Restaurant</text>
    <rect x="160" y="270" width="468" height="25" fill="#f59e0b" rx="4"/>
    <text x="638" y="287" font-size="14" font-weight="700" fill="#f59e0b">39s</text>


  <rect x="100" y="280" width="400" height="30" fill="#d1fae5" rx="4"/>
  <text x="300" y="300" text-anchor="middle" font-size="13" font-weight="700" fill="#047857">Average: 31.6s — Mixo delivers on the promise ✓</text>
</svg>