<svg width="700" height="400" viewBox="0 0 700 400" xmlns="http://www.w3.org/2000/svg">
  <rect width="700" height="400" fill="#f9fafb" rx="8"/>

  <!-- Free Tier -->
  <rect x="30" y="50" width="310" height="320" fill="#ffffff" stroke="#d1d5db" stroke-width="2" rx="8"/>
  <rect x="30" y="50" width="310" height="50" fill="#10b981" rx="8"/>
  <text x="185" y="82" text-anchor="middle" font-size="18" font-weight="900" fill="#ffffff">Free Tier</text>

  <text x="50" y="130" font-size="14" fill="#374151">✓ 3 projects</text>
  <text x="50" y="160" font-size="14" fill="#374151">✓ Sitemap generation</text>
  <text x="50" y="190" font-size="14" fill="#374151">✓ Wireframe generation</text>
  <text x="50" y="220" font-size="14" fill="#374151">✓ Export to Framer</text>
  <text x="50" y="250" font-size="14" fill="#374151">✓ Component library</text>
  <text x="50" y="280" font-size="14" fill="#374151">✅ All core features</text>

  <rect x="50" y="310" width="270" height="40" fill="#10b981" rx="4"/>
  <text x="185" y="335" text-anchor="middle" font-size="14" font-weight="700" fill="#ffffff">Perfect for testing</text>

  <!-- Paid Tier -->
  <rect x="360" y="50" width="310" height="320" fill="#ffffff" stroke="#8b5cf6" stroke-width="3" rx="8"/>
  <rect x="360" y="50" width="310" height="50" fill="#8b5cf6" rx="8"/>
  <text x="515" y="82" text-anchor="middle" font-size="18" font-weight="900" fill="#ffffff">Pro Tier</text>

  <text x="380" y="130" font-size="14" fill="#374151">✓ Unlimited projects</text>
  <text x="380" y="160" font-size="14" fill="#374151">✓ Team collaboration</text>
  <text x="380" y="190" font-size="14" fill="#374151">✓ Priority support</text>
  <text x="380" y="220" font-size="14" fill="#374151">✓ Advanced components</text>
  <text x="380" y="250" font-size="14" fill="#374151">✓ Everything in Free</text>
  <text x="380" y="280" font-size="14" fill="#8b5cf6" font-weight="700">✅ Built for agencies</text>

  <rect x="380" y="310" width="270" height="40" fill="#8b5cf6" rx="4"/>
  <text x="515" y="335" text-anchor="middle" font-size="14" font-weight="700" fill="#ffffff">Scale with teams</text>
</svg>