<svg width="700" height="450" viewBox="0 0 700 450" xmlns="http://www.w3.org/2000/svg">
  <rect width="700" height="450" fill="#f9fafb" rx="8"/>
  <text x="350" y="40" text-anchor="middle" font-size="20" font-weight="900" fill="#1f2937">AI-Generated Sitemap: 47 Pages</text>
  <text x="350" y="65" text-anchor="middle" font-size="14" fill="#6b7280">Generated in 2 minutes 47 seconds</text>

  <line x1="50" y1="280" x2="650" y2="280" stroke="#9ca3af" stroke-width="2"/>

  
    <rect x="50" y="184" width="60" height="96" fill="#8b5cf6" rx="4" opacity="0.9"/>
    <text x="80" y="179" text-anchor="middle" font-size="16" font-weight="900" fill="#8b5cf6">12</text>
    <text x="80" y="300" text-anchor="middle" font-size="12" font-weight="700" fill="#374151">Product</text>

    <rect x="140" y="160" width="60" height="120" fill="#3b82f6" rx="4" opacity="0.9"/>
    <text x="170" y="155" text-anchor="middle" font-size="16" font-weight="900" fill="#3b82f6">15</text>
    <text x="170" y="300" text-anchor="middle" font-size="12" font-weight="700" fill="#374151">Resources</text>

    <rect x="230" y="216" width="60" height="64" fill="#10b981" rx="4" opacity="0.9"/>
    <text x="260" y="211" text-anchor="middle" font-size="16" font-weight="900" fill="#10b981">8</text>
    <text x="260" y="300" text-anchor="middle" font-size="12" font-weight="700" fill="#374151">Company</text>

    <rect x="320" y="232" width="60" height="48" fill="#f59e0b" rx="4" opacity="0.9"/>
    <text x="350" y="227" text-anchor="middle" font-size="16" font-weight="900" fill="#f59e0b">6</text>
    <text x="350" y="300" text-anchor="middle" font-size="12" font-weight="700" fill="#374151">Legal</text>

    <rect x="410" y="232" width="60" height="48" fill="#ef4444" rx="4" opacity="0.9"/>
    <text x="440" y="227" text-anchor="middle" font-size="16" font-weight="900" fill="#ef4444">6</text>
    <text x="440" y="300" text-anchor="middle" font-size="12" font-weight="700" fill="#374151">Support</text>


  <text x="350" y="380" text-anchor="middle" font-size="13" fill="#6b7280">Manual planning would take 2-3 hours</text>
  <text x="350" y="400" text-anchor="middle" font-size="13" font-weight="700" fill="#8b5cf6">Relume saved 2+ hours of sitemap planning</text>

  <rect x="200" y="420" width="300" height="25" fill="#8b5cf6" rx="4"/>
  <text x="350" y="437" text-anchor="middle" font-size="12" font-weight="700" fill="#ffffff">One-click export to Framer ✓</text>
</svg>