<svg width="700" height="420" viewBox="0 0 700 420" xmlns="http://www.w3.org/2000/svg">
  <rect width="700" height="420" fill="#f9fafb" rx="8"/>

  <text x="350" y="35" text-anchor="middle" font-size="18" font-weight="900" fill="#1f2937">E-Commerce: Simplicity vs Flexibility</text>

  <!-- Squarespace -->
  <rect x="50" y="70" width="280" height="300" fill="#ffffff" stroke="#10b981" stroke-width="3" rx="8"/>
  <rect x="50" y="70" width="280" height="40" fill="#10b981" rx="8"/>
  <text x="190" y="97" text-anchor="middle" font-size="16" font-weight="900" fill="#ffffff">SQUARESPACE</text>

  <text x="70" y="140" font-size="13" fill="#047857">✓ Setup time: 2 hours</text>
  <text x="70" y="170" font-size="13" fill="#047857">✓ 12 products live</text>
  <text x="70" y="200" font-size="13" fill="#047857">✓ Digital downloads ✓</text>
  <text x="70" y="230" font-size="13" fill="#047857">✓ Payments working</text>
  <text x="70" y="260" font-size="13" fill="#047857">✓ Zero transaction fees</text>

  <line x1="70" y1="285" x2="310" y2="285" stroke="#e5e7eb" stroke-width="2"/>

  <text x="70" y="310" font-size="13" fill="#dc2626">❌ Custom field: No</text>
  <text x="70" y="335" font-size="13" fill="#dc2626">❌ Advanced checkout: No</text>
  <text x="70" y="360" font-size="13" fill="#dc2626">❌ API access: No</text>

  <!-- WooCommerce -->
  <rect x="370" y="70" width="280" height="300" fill="#ffffff" stroke="#3b82f6" stroke-width="3" rx="8"/>
  <rect x="370" y="70" width="280" height="40" fill="#3b82f6" rx="8"/>
  <text x="510" y="97" text-anchor="middle" font-size="16" font-weight="900" fill="#ffffff">WOOCOMMERCE</text>

  <text x="390" y="140" font-size="13" fill="#374151">⚠️ Setup time: 4+ hours</text>
  <text x="390" y="170" font-size="13" fill="#047857">✓ Unlimited products</text>
  <text x="390" y="200" font-size="13" fill="#047857">✓ All download types</text>
  <text x="390" y="230" font-size="13" fill="#047857">✓ 100+ payment gateways</text>
  <text x="390" y="260" font-size="13" fill="#78350f">⚠️ Transaction fees vary</text>

  <line x1="390" y1="285" x2="630" y2="285" stroke="#e5e7eb" stroke-width="2"/>

  <text x="390" y="310" font-size="13" fill="#047857">✓ Custom fields: Yes</text>
  <text x="390" y="335" font-size="13" fill="#047857">✓ Advanced checkout: Yes</text>
  <text x="390" y="360" font-size="13" fill="#047857">✓ Full API access</text>

  <text x="350" y="395" text-anchor="middle" font-size="12" fill="#6b7280">Pick simplicity or flexibility. You can't have both.</text>
</svg>