<svg width="600" height="300" viewBox="0 0 600 300" xmlns="http://www.w3.org/2000/svg">
  <rect width="600" height="300" fill="#fee2e2" rx="8"/>
  <text x="300" y="30" text-anchor="middle" font-size="18" font-weight="900" fill="#991b1b">Multi-Page: Where One-Page Focus Breaks</text>
  
  <!-- Page quality degradation -->
  <rect x="30" y="55" width="540" height="140" fill="#ffffff" stroke="#dc2626" stroke-width="2" rx="5"/>
  
  <!-- Page 1-2: Green -->
  <rect x="50" y="75" width="100" height="50" fill="#d1fae5" stroke="#22c55e" stroke-width="2" rx="3"/>
  <text x="100" y="95" font-size="11" font-weight="900" fill="#059669" text-anchor="middle">Page 1</text>
  <text x="100" y="110" font-size="10" fill="#059669" text-anchor="middle">Home ✓</text>
  <text x="100" y="122" font-size="9" fill="#047857" text-anchor="middle">Perfect</text>
  
  <rect x="160" y="75" width="100" height="50" fill="#d1fae5" stroke="#22c55e" stroke-width="2" rx="3"/>
  <text x="210" y="95" font-size="11" font-weight="900" fill="#059669" text-anchor="middle">Page 2</text>
  <text x="210" y="110" font-size="10" fill="#059669" text-anchor="middle">About ✓</text>
  <text x="210" y="122" font-size="9" fill="#047857" text-anchor="middle">Easy</text>
  
  <!-- Page 3: Yellow -->
  <rect x="270" y="75" width="100" height="50" fill="#fef3c7" stroke="#f59e0b" stroke-width="2" rx="3"/>
  <text x="320" y="95" font-size="11" font-weight="900" fill="#b45309" text-anchor="middle">Page 3</text>
  <text x="320" y="110" font-size="10" fill="#b45309" text-anchor="middle">Services ⚠</text>
  <text x="320" y="122" font-size="9" fill="#b45309" text-anchor="middle">Clunky nav</text>
  
  <!-- Page 4: Orange -->
  <rect x="380" y="75" width="100" height="50" fill="#fed7aa" stroke="#ea580c" stroke-width="2" rx="3"/>
  <text x="430" y="95" font-size="11" font-weight="900" fill="#c2410c" text-anchor="middle">Page 4</text>
  <text x="430" y="110" font-size="10" fill="#c2410c" text-anchor="middle">Blog ⚠</text>
  <text x="430" y="122" font-size="9" fill="#c2410c" text-anchor="middle">Very basic</text>
  
  <!-- Page 5: Red -->
  <rect x="490" y="75" width="70" height="50" fill="#fecaca" stroke="#dc2626" stroke-width="2" rx="3"/>
  <text x="525" y="95" font-size="10" font-weight="900" fill="#991b1b" text-anchor="middle">P5</text>
  <text x="525" y="110" font-size="9" fill="#991b1b" text-anchor="middle">Contact ✗</text>
  <text x="525" y="122" font-size="8" fill="#991b1b" text-anchor="middle">Weak</text>
  
  <!-- Limitations list -->
  <rect x="50" y="135" width="510" height="50" fill="#1f2937" rx="3"/>
  <text x="70" y="152" font-size="10" fill="#fbbf24">⚠ No dropdown menus</text>
  <text x="70" y="168" font-size="10" fill="#fbbf24">⚠ Limited nav customization</text>
  <text x="280" y="152" font-size="10" fill="#fbbf24">⚠ No page hierarchy</text>
  <text x="280" y="168" font-size="10" fill="#fbbf24">⚠ Blog: no categories</text>
  <text x="460" y="160" font-size="10" fill="#dc2626" text-anchor="middle">Feels disconnected</text>
  
  <!-- Architecture issue -->
  <rect x="30" y="205" width="540" height="60" fill="#1f2937" rx="3"/>
  <text x="300" y="225" font-size="12" font-weight="700" fill="#ffffff" text-anchor="middle">Root Problem: Architecture Built for One-Page</text>
  <text x="300" y="245" font-size="10" fill="#9ca3af" text-anchor="middle">Multi-page = afterthought. Navigation, hierarchy, organization all weaker.</text>
  <text x="300" y="260" font-size="10" fill="#fbbf24" text-anchor="middle">1-2 pages: Brilliant | 3+ pages: Use Framer or Webflow</text>
  
  <!-- Bottom takeaway -->
  <rect x="30" y="275" width="540" height="20" fill="#dc2626" rx="2"/>
  <text x="300" y="289" font-size="10" font-weight="700" fill="#ffffff" text-anchor="middle">Strikingly excels at one-page. Don't force multi-page.</text>
</svg>