<svg width="600" height="280" viewBox="0 0 600 280" xmlns="http://www.w3.org/2000/svg">
  <rect width="600" height="280" fill="#e0e7ff" rx="8"/>
  <text x="300" y="30" text-anchor="middle" font-size="18" font-weight="900" fill="#4338ca">Real-Time Collaboration: Bridges the Gap</text>
  
  <!-- Team workflow -->
  <rect x="30" y="55" width="540" height="120" fill="#ffffff" stroke="#6366f1" stroke-width="2" rx="5"/>
  <text x="300" y="80" font-size="12" font-weight="700" fill="#4338ca" text-anchor="middle">3-Person Team Test: Designer + Developer + PM</text>
  
  <!-- Features -->
  <rect x="50" y="95" width="150" height="65" fill="#e0e7ff" stroke="#6366f1" stroke-width="1" rx="3"/>
  <text x="125" y="115" font-size="10" font-weight="700" fill="#4338ca" text-anchor="middle">Real-Time Editing</text>
  <text x="60" y="135" font-size="9" fill="#4338ca">• See each other's</text>
  <text x="60" y="150" font-size="9" fill="#4338ca">  cursors</text>
  <text x="60" y="165" font-size="9" fill="#4338ca">• Changes sync</text>
  <text x="60" y="180" font-size="9" fill="#4338ca">  immediately</text>
  
  <rect x="220" y="95" width="150" height="65" fill="#e0e7ff" stroke="#6366f1" stroke-width="1" rx="3"/>
  <text x="295" y="115" font-size="10" font-weight="700" fill="#4338ca" text-anchor="middle">Comments</text>
  <text x="230" y="135" font-size="9" fill="#4338ca">• Feedback on</text>
  <text x="230" y="150" font-size="9" fill="#4338ca">  specific elements</text>
  <text x="230" y="165" font-size="9" fill="#4338ca">• Like Figma</text>
  <text x="230" y="180" font-size="9" fill="#4338ca">  comments</text>
  
  <rect x="390" y="95" width="150" height="65" fill="#e0e7ff" stroke="#6366f1" stroke-width="1" rx="3"/>
  <text x="465" y="115" font-size="10" font-weight="700" fill="#4338ca" text-anchor="middle">Version History</text>
  <text x="400" y="135" font-size="9" fill="#4338ca">• Branch versions</text>
  <text x="400" y="150" font-size="9" fill="#4338ca">• Revert changes</text>
  <text x="400" y="165" font-size="9" fill="#4338ca">• See who changed</text>
  <text x="400" y="180" font-size="9" fill="#4338ca">  what</text>
  
  <!-- Workflow comparison -->
  <rect x="30" y="185" width="540" height="60" fill="#1f2937" rx="3"/>
  <text x="300" y="205" font-size="11" font-weight="700" fill="#ffffff" text-anchor="middle">Workflow Comparison</text>
  
  <rect x="50" y="215" width="150" height="25" fill="#fee2e2" stroke="#dc2626" stroke-width="1" rx="3"/>
  <text x="125" y="230" font-size="9" fill="#991b1b" text-anchor="middle">Traditional Figma Flow</text>
  <text x="125" y="245" font-size="8" fill="#991b1b" text-anchor="middle">Design → Specs → Dev builds</text>
  
  <rect x="220" y="215" width="150" height="25" fill="#d1fae5" stroke="#22c55e" stroke-width="1" rx="3"/>
  <text x="295" y="230" font-size="9" fill="#059669" text-anchor="middle">TeleportHQ Flow</text>
  <text x="295" y="245" font-size="8" fill="#059669" text-anchor="middle">Design + Code simultaneously</text>
  
  <rect x="390" y="215" width="150" height="25" fill="#fef3c7" stroke="#f59e0b" stroke-width="1" rx="3"/>
  <text x="465" y="230" font-size="9" fill="#b45309" text-anchor="middle">Framer</text>
  <text x="465" y="245" font-size="8" fill="#b45309" text-anchor="middle">Basic sharing only</text>
  
  <!-- Bottom verdict -->
  <rect x="30" y="255" width="540" height="20" fill="#4338ca" rx="2"/>
  <text x="300" y="269" font-size="10" font-weight="700" fill="#ffffff" text-anchor="middle">Compresses the handoff: Designer iterates visually, dev sees code changes in real-time</text>
</svg>