<svg width="600" height="260" viewBox="0 0 600 260" xmlns="http://www.w3.org/2000/svg">
  <rect width="600" height="260" fill="#fee2e2" rx="8"/>
  <text x="300" y="30" text-anchor="middle" font-size="18" font-weight="900" fill="#991b1b">Template Variety: 5 Patterns on Repeat</text>
  
  <!-- The test -->
  <rect x="30" y="55" width="540" height="110" fill="#ffffff" stroke="#dc2626" stroke-width="2" rx="5"/>
  <text x="300" y="80" font-size="12" font-weight="700" fill="#991b1b" text-anchor="middle">Test: Generated 20 Sites Across Industries</text>
  
  <text x="50" y="105" font-size="10" fill="#991b1b">• SaaS (5 sites)</text>
  <text x="50" y="125" font-size="10" fill="#991b1b">• E-commerce (5 sites)</text>
  <text x="50" y="145" font-size="10" fill="#991b1b">• Local business (5 sites)</text>
  <text x="250" y="105" font-size="10" fill="#991b1b">• Portfolio (5 sites)</text>
  
  <rect x="250" y="115" width="320" height="40" fill="#dc2626" rx="3"/>
  <text x="410" y="135" font-size="11" font-weight="700" fill="#ffffff" text-anchor="middle">Result: 5 Distinct Layouts</text>
  <text x="410" y="152" font-size="9" fill="#fbbf24" text-anchor="middle">Same patterns, different colors</text>
  
  <!-- Comparison -->
  <rect x="30" y="175" width="540" height="55" fill="#1f2937" rx="3"/>
  <text x="300" y="198" font-size="11" font-weight="700" fill="#ffffff" text-anchor="middle">Pattern Variety Comparison</text>
  
  <rect x="50" y="210" width="180" height="15" fill="#dc2626" rx="2"/>
  <text x="140" y="221" font-size="9" font-weight="700" fill="#ffffff" text-anchor="middle">Unicorn: 5 patterns</text>
  
  <rect x="260" y="210" width="180" height="15" fill="#22c55e" rx="2"/>
  <text x="350" y="221" font-size="9" font-weight="700" fill="#ffffff" text-anchor="middle">Mixo: 15+ patterns (3x)</text>
  
  <rect x="470" y="210" width="90" height="15" fill="#9ca3af" rx="2"/>
  <text x="515" y="221" font-size="9" font-weight="700" fill="#ffffff" text-anchor="middle">Durable: 10+</text>
  
  <!-- Bottom verdict -->
  <rect x="30" y="240" width="540" height="15" fill="#991b1b" rx="2"/>
  <text x="300" y="251" font-size="10" font-weight="700" fill="#ffffff" text-anchor="middle">The AI recycles 5 templates. Your site looks like everyone else's.</text>
</svg>