<svg width="600" height="280" viewBox="0 0 600 280" xmlns="http://www.w3.org/2000/svg">
  <rect width="600" height="280" fill="#fee2e2" rx="8"/>
  <text x="300" y="30" text-anchor="middle" font-size="18" font-weight="900" fill="#991b1b">Customization: Stuck With Template Structure</text>
  
  <!-- What you CAN do -->
  <rect x="30" y="55" width="260" height="130" fill="#d1fae5" stroke="#22c55e" stroke-width="2" rx="5"/>
  <text x="160" y="80" font-size="12" font-weight="900" fill="#059669" text-anchor="middle">What You CAN Change</text>
  
  <text x="50" y="105" font-size="10" fill="#22c55e">✓ Colors</text>
  <text x="50" y="125" font-size="10" fill="#22c55e">✓ Images</text>
  <text x="50" y="145" font-size="10" fill="#22c55e">✓ Text content</text>
  <text x="50" y="165" font-size="10" fill="#22c55e">✓ Basic sections</text>
  
  <rect x="50" y="172" width="220" height="8" fill="#22c55e" rx="2"/>
  <text x="160" y="182" font-size="9" fill="#047857" text-anchor="middle">Surface-level changes only</text>
  
  <!-- What you CAN'T do -->
  <rect x="310" y="55" width="260" height="130" fill="#fee2e2" stroke="#dc2626" stroke-width="2" rx="5"/>
  <text x="440" y="80" font-size="12" font-weight="900" fill="#991b1b" text-anchor="middle">What You CAN'T Change</text>
  
  <text x="330" y="105" font-size="10" fill="#dc2626">✗ Layout structure</text>
  <text x="330" y="125" font-size="10" fill="#dc2626">✗ Fonts</text>
  <text x="330" y="145" font-size="10" fill="#dc2626">✗ Section ordering</text>
  <text x="330" y="165" font-size="10" fill="#dc2626">✗ Custom sections</text>
  
  <rect x="330" y="172" width="220" height="8" fill="#dc2626" rx="2"/>
  <text x="440" y="182" font-size="9" fill="#991b1b" text-anchor="middle">Locked into template skeleton</text>
  
  <!-- The reality -->
  <rect x="30" y="195" width="540" height="50" fill="#1f2937" rx="3"/>
  <text x="300" y="218" font-size="11" font-weight="700" fill="#ffffff" text-anchor="middle">"Drag and Drop" Reality</text>
  <text x="300" y="238" font-size="10" fill="#fbbf24" text-anchor="middle">You can drag elements within the template structure • You can't break out of it</text>
  
  <!-- Bottom verdict -->
  <rect x="30" y="255" width="540" height="20" fill="#dc2626" rx="2"/>
  <text x="300" y="269" font-size="10" font-weight="700" fill="#ffffff" text-anchor="middle">3-minute setup becomes 6-hour migration when you outgrow it</text>
</svg>