<svg width="600" height="280" viewBox="0 0 600 280" xmlns="http://www.w3.org/2000/svg">
  <rect width="600" height="280" fill="#fee2e2" rx="8"/>
  <text x="300" y="30" text-anchor="middle" font-size="18" font-weight="900" fill="#991b1b">PageSpeed: 52/100 Mobile - Hurts SEO</text>
  
  <!-- Web.com scores -->
  <rect x="30" y="55" width="260" height="130" fill="#ffffff" stroke="#dc2626" stroke-width="2" rx="5"/>
  <text x="160" y="80" font-size="13" font-weight="900" fill="#991b1b" text-anchor="middle">Web.com Scores</text>
  
  <rect x="50" y="95" width="220" height="35" fill="#dc2626" rx="3"/>
  <text x="160" y="113" font-size="9" font-weight="700" fill="#ffffff" text-anchor="middle">Mobile</text>
  <text x="160" y="128" font-size="18" font-weight="900" fill="#ffffff" text-anchor="middle">52/100</text>
  
  <rect x="50" y="140" width="220" height="35" fill="#f59e0b" rx="3"/>
  <text x="160" y="158" font-size="9" font-weight="700" fill="#ffffff" text-anchor="middle">Desktop</text>
  <text x="160" y="173" font-size="18" font-weight="900" fill="#ffffff" text-anchor="middle">68/100</text>
  
  <text x="160" y="192" font-size="9" fill="#991b1b" text-anchor="middle">Load time: 4.8 seconds</text>
  
  <!-- Competitors -->
  <rect x="310" y="55" width="260" height="130" fill="#d1fae5" stroke="#22c55e" stroke-width="2" rx="5"/>
  <text x="440" y="80" font-size="13" font-weight="900" fill="#059669" text-anchor="middle">Competitors</text>
  
  <text x="330" y="105" font-size="10" fill="#059669">Hostinger AI (budget):</text>
  <text x="330" y="123" font-size="9" fill="#047857">65+ mobile</text>
  
  <text x="330" y="145" font-size="10" fill="#059669">Framer:</text>
  <text x="330" y="163" font-size="9" fill="#047857">85+ mobile</text>
  
  <text x="330" y="185" font-size="10" fill="#059669">Squarespace:</text>
  <text x="330" y="203" font-size="9" fill="#047857">70+ mobile</text>
  
  <!-- Root cause -->
  <rect x="30" y="195" width="540" height="50" fill="#1f2937" rx="3"/>
  <text x="300" y="215" font-size="11" font-weight="700" fill="#ffffff" text-anchor="middle">Root Cause: Template Architecture</text>
  
  <text x="100" y="235" font-size="9" fill="#fbbf24">• Bloated templates</text>
  <text x="100" y="250" font-size="9" fill="#fbbf24">• Unnecessary scripts</text>
  
  <text x="300" y="235" font-size="9" fill="#fbbf24">• Unoptimized images</text>
  <text x="300" y="250" font-size="9" fill="#fbbf24">• No lazy loading</text>
  
  <text x="500" y="242" font-size="9" fill="#dc2626" text-anchor="middle">Not fixable</text>
  
  <!-- Bottom verdict -->
  <rect x="30" y="255" width="540" height="20" fill="#dc2626" rx="2"/>
  <text x="300" y="269" font-size="10" font-weight="700" fill="#ffffff" text-anchor="middle">If SEO matters, Web.com's poor performance will hurt you. Built into template architecture.</text>
</svg>