<svg width="600" height="260" viewBox="0 0 600 260" xmlns="http://www.w3.org/2000/svg">
  <rect width="600" height="260" fill="#fee2e2" rx="8"/>
  <text x="300" y="30" text-anchor="middle" font-size="18" font-weight="900" fill="#991b1b">AI Features: Not a Selling Point</text>
  
  <!-- What Webnode has -->
  <rect x="30" y="55" width="260" height="110" fill="#ffffff" stroke="#dc2626" stroke-width="2" rx="5"/>
  <text x="160" y="80" font-size="12" font-weight="900" fill="#991b1b" text-anchor="middle">Webnode AI</text>
  
  <text x="50" y="105" font-size="10" fill="#dc2626">⚠ Basic text generation</text>
  <text x="50" y="125" font-size="10" fill="#dc2626">⚠ Generic suggestions</text>
  <text x="50" y="145" font-size="10" fill="#dc2626">⚠ No brand voice</text>
  
  <rect x="50" y="155" width="220" height="5" fill="#dc2626" rx="2"/>
  <text x="160" y="166" font-size="9" fill="#991b1b" text-anchor="middle">"Checklist item" quality</text>
  
  <!-- Better options -->
  <rect x="310" y="55" width="260" height="110" fill="#d1fae5" stroke="#22c55e" stroke-width="2" rx="5"/>
  <text x="440" y="80" font-size="12" font-weight="900" fill="#059669" text-anchor="middle">Better AI Exists</text>
  
  <text x="330" y="105" font-size="10" fill="#059669">Framer AI: Design-first</text>
  <text x="330" y="125" font-size="10" fill="#059669">Durable: CRM features</text>
  <text x="330" y="145" font-size="10" fill="#059669">Wix: Context-aware</text>
  
  <rect x="330" y="155" width="220" height="5" fill="#22c55e" rx="2"/>
  <text x="440" y="166" font-size="9" fill="#047857" text-anchor="middle">Actually impressive</text>
  
  <!-- The verdict -->
  <rect x="30" y="175" width="540" height="60" fill="#1f2937" rx="3"/>
  <text x="300" y="198" font-size="11" font-weight="700" fill="#ffffff" text-anchor="middle">Don't Choose Webnode for AI Features</text>
  
  <text x="150" y="220" font-size="10" fill="#fbbf24" text-anchor="middle">Choose Webnode for:</text>
  <text x="150" y="238" font-size="9" fill="#fbbf24" text-anchor="middle">Multilingual</text>
  <text x="150" y="255" font-size="9" fill="#fbbf24" text-anchor="middle">EU hosting</text>
  
  <text x="450" y="220" font-size="10" fill="#22c55e" text-anchor="middle">Choose competitors for:</text>
  <text x="450" y="238" font-size="9" fill="#22c55e" text-anchor="middle">AI quality</text>
  <text x="450" y="255" font-size="9" fill="#22c55e" text-anchor="middle">Design quality</text>
  
  <!-- Bottom verdict -->
  <rect x="30" y="245" width="540" height="10" fill="#dc2626" rx="2"/>
  <text x="300" y="253" font-size="9" font-weight="700" fill="#ffffff" text-anchor="middle">Webnode AI exists but doesn't compete. It's a "we have this too" feature, not a core strength.</text>
</svg>