<svg width="600" height="280" viewBox="0 0 600 280" xmlns="http://www.w3.org/2000/svg">
  <rect width="600" height="280" fill="#fef3c7" rx="8"/>
  <text x="300" y="30" text-anchor="middle" font-size="18" font-weight="900" fill="#92400e">The Tradeoff: Dated Templates for Multilingual Ease</text>
  
  <!-- Webnode -->
  <rect x="30" y="55" width="260" height="130" fill="#ffffff" stroke="#f59e0b" stroke-width="2" rx="5"/>
  <text x="160" y="80" font-size="12" font-weight="900" fill="#b45309" text-anchor="middle">Webnode</text>
  
  <text x="50" y="105" font-size="10" fill="#22c55e">✓ Multilingual: Built-in</text>
  <text x="50" y="125" font-size="10" fill="#dc2626">✗ Templates: Dated (2018)</text>
  
  <text x="50" y="150" font-size="9" fill="#047857">20+ languages: 5 min setup</text>
  <text x="50" y="168" font-size="9" fill="#991b1b">Template quality: "Meh"</text>
  
  <rect x="50" y="178" width="220" height="5" fill="#f59e0b" rx="2"/>
  
  <!-- Framer manual -->
  <rect x="310" y="55" width="260" height="130" fill="#ffffff" stroke="#3b82f6" stroke-width="2" rx="5"/>
  <text x="440" y="80" font-size="12" font-weight="900" fill="#1e40af" text-anchor="middle">Framer (Manual Setup)</text>
  
  <text x="330" y="105" font-size="10" fill="#22c55e">✓ Templates: Premium</text>
  <text x="330" y="125" font-size="10" fill="#dc2626">✗ Multilingual: Manual work</text>
  
  <text x="330" y="150" font-size="9" fill="#991b1b">20+ languages: 20+ hours work</text>
  <text x="330" y="168" font-size="9" fill="#047857">Template quality: "Beautiful"</text>
  
  <rect x="330" y="178" width="220" height="5" fill="#3b82f6" rx="2"/>
  
  <!-- The question -->
  <rect x="30" y="195" width="540" height="55" fill="#1f2937" rx="3"/>
  <text x="300" y="218" font-size="11" font-weight="700" fill="#ffffff" text-anchor="middle">The Question: Which Tradeoff Acceptable?</text>
  
  <text x="150" y="240" font-size="10" fill="#fbbf24" text-anchor="middle">Webnode:</text>
  <text x="150" y="255" font-size="9" fill="#fbbf24" text-anchor="middle">Dated look, multilingual easy</text>
  
  <text x="450" y="240" font-size="10" fill="#3b82f6" text-anchor="middle">Framer:</text>
  <text x="450" y="255" font-size="9" fill="#3b82f6" text-anchor="middle">Premium look, 20+ hours work</text>
  
  <!-- Bottom verdict -->
  <rect x="30" y="260" width="540" height="15" fill="#f59e0b" rx="2"/>
  <text x="300" y="271" font-size="9" font-weight="700" fill="#ffffff" text-anchor="middle">Webnode: dated templates are the price you pay for built-in multilingual</text>
</svg>