<svg width="700" height="400" viewBox="0 0 700 400" xmlns="http://www.w3.org/2000/svg">
  <rect width="700" height="400" fill="#f9fafb" rx="8"/>

  <text x="350" y="35" text-anchor="middle" font-size="18" font-weight="900" fill="#1f2937">Wix ADI: 87 Seconds to Live Site</text>

  <!-- Timeline -->
  <g transform="translate(50, 80)">
    <!-- Question 1 -->
    <rect x="0" y="0" width="100" height="50" fill="#0c6eff" rx="4"/>
    <text x="50" y="30" text-anchor="middle" font-size="11" font-weight="700" fill="#ffffff">Q1: Type</text>

    <!-- Arrow -->
    <line x1="110" y1="25" x2="140" y2="25" stroke="#0c6eff" stroke-width="2"/>

    <!-- Question 2 -->
    <rect x="150" y="0" width="100" height="50" fill="#0c6eff" rx="4"/>
    <text x="200" y="30" text-anchor="middle" font-size="11" font-weight="700" fill="#ffffff">Q2: Features</text>

    <!-- Arrow -->
    <line x1="260" y1="25" x2="290" y2="25" stroke="#0c6eff" stroke-width="2"/>

    <!-- Question 3 -->
    <rect x="300" y="0" width="100" height="50" fill="#0c6eff" rx="4"/>
    <text x="350" y="30" text-anchor="middle" font-size="11" font-weight="700" fill="#ffffff">Q3: Style</text>

    <!-- Arrow -->
    <line x1="410" y1="25" x2="440" y2="25" stroke="#0c6eff" stroke-width="2"/>

    <!-- Question 4 -->
    <rect x="450" y="0" width="100" height="50" fill="#0c6eff" rx="4"/>
    <text x="500" y="30" text-anchor="middle" font-size="11" font-weight="700" fill="#ffffff">Q4: Colors</text>

    <!-- Arrow -->
    <line x1="560" y1="25" x2="590" y2="25" stroke="#0c6eff" stroke-width="2"/>

    <!-- Question 5 -->
    <rect x="0" y="80" width="100" height="50" fill="#0c6eff" rx="4"/>
    <text x="50" y="110" text-anchor="middle" font-size="11" font-weight="700" fill="#ffffff">Q5: Name</text>

    <!-- Generation -->
    <rect x="150" y="80" width="500" height="50" fill="#0c6eff" rx="4"/>
    <text x="400" y="110" text-anchor="middle" font-size="13" font-weight="900" fill="#ffffff">⚡ AI GENERATING SITE...</text>

    <!-- Result -->
    <rect x="0" y="180" width="600" height="100" fill="#d1fae5" stroke="#10b981" stroke-width="2" rx="8"/>
    <text x="300" y="210" text-anchor="middle" font-size="16" font-weight="900" fill="#047857">✓ SITE LIVE IN 87 SECONDS</text>
    <text x="300" y="240" text-anchor="middle" font-size="13" fill="#065f46">Homepage, Menu, About, Contact - all generated</text>
    <text x="300" y="265" text-anchor="middle" font-size="12" fill="#047857">Looked decent. Clearly "Wix template" but usable.</text>

    <rect x="100" y="310" width="400" height="50" fill="#ffffff" stroke="#d1d5db" stroke-width="2" rx="4"/>
    <text x="300" y="335" text-anchor="middle" font-size="12" font-weight="700" fill="#1f2937">FAST: Yes</text>
    <text x="300" y="352" text-anchor="middle" font-size="11" fill="#6b7280">UNIQUE: No. Usable: Yes.</text>
  </g>
</svg>