<svg width="600" height="320" viewBox="0 0 600 320" xmlns="http://www.w3.org/2000/svg">
  <rect width="600" height="320" fill="#f9fafb" rx="8"/>
  <text x="300" y="35" text-anchor="middle" font-size="18" font-weight="900" fill="#1f2937">PageSpeed: Wix vs Framer (Same Content)</text>

  <!-- Performance bar -->
  <text x="30" y="80" font-size="14" font-weight="600" fill="#374151">Performance</text>
  <rect x="140" y="65" width="204" height="30" fill="#f59e0b" rx="4"/>
  <text x="350" y="85" font-size="16" font-weight="900" fill="#f59e0b">68</text>
  <text x="90" y="85" font-size="12" font-weight="600" fill="#6b7280">Wix</text>

  <rect x="380" y="65" width="294" height="30" fill="#10b981" rx="4"/>
  <text x="580" y="85" font-size="16" font-weight="900" fill="#10b981">98</text>
  <text x="340" y="85" font-size="12" font-weight="600" fill="#6b7280">Framer</text>

  <!-- Other metrics -->
  <text x="30" y="140" font-size="14" font-weight="600" fill="#374151">Accessibility</text>
  <rect x="140" y="125" width="222" height="30" fill="#f59e0b" rx="4"/>
  <text x="350" y="145" font-size="16" font-weight="900" fill="#f59e0b">74</text>
  <rect x="380" y="125" width="282" height="30" fill="#10b981" rx="4"/>
  <text x="580" y="145" font-size="16" font-weight="900" fill="#10b981">94</text>

  <text x="30" y="200" font-size="14" font-weight="600" fill="#374151">SEO</text>
  <rect x="140" y="185" width="213" height="30" fill="#f59e0b" rx="4"/>
  <text x="350" y="205" font-size="16" font-weight="900" fill="#f59e0b">71</text>
  <rect x="380" y="185" width="288" height="30" fill="#10b981" rx="4"/>
  <text x="580" y="205" font-size="16" font-weight="900" fill="#10b981">96</text>

  <!-- Bottom message -->
  <rect x="50" y="250" width="500" height="50" fill="#ffffff" stroke="#d1d5db" stroke-width="2" rx="4"/>
  <text x="300" y="270" text-anchor="middle" font-size="13" font-weight="700" fill="#1f2937">Feature Richness = Page Speed Tax</text>
  <text x="300" y="288" text-anchor="middle" font-size="11" fill="#6b7280">All those Wix apps and features come at a cost: 30-point performance gap</text>
</svg>