<svg width="700" height="380" viewBox="0 0 700 380" xmlns="http://www.w3.org/2000/svg">
  <rect width="700" height="380" fill="#f9fafb" rx="8"/>

  <text x="350" y="35" text-anchor="middle" font-size="18" font-weight="900" fill="#1f2937">Template Switch: The Warning Wasn't Strong Enough</text>

  <!-- Before -->
  <rect x="50" y="70" width="260" height="200" fill="#d1fae5" stroke="#10b981" stroke-width="3" rx="8"/>
  <text x="180" y="100" text-anchor="middle" font-size="14" font-weight="700" fill="#047857">BEFORE SWITCH</text>
  <text x="70" y="130" font-size="12" fill="#065f46">✓ Homepage with hero</text>
  <text x="70" y="155" font-size="12" fill="#065f46">✓ Menu section complete</text>
  <text x="70" y="180" font-size="12" fill="#065f86">✓ About page written</text>
  <text x="70" y="205" font-size="12" fill="#065f86">✓ Contact form working</text>
  <text x="70" y="230" font-size="12" fill="#065f86">✓ Gallery images uploaded</text>
  <text x="70" y="255" font-size="12" fill="#065f86">✓ Blog posts published</text>

  <!-- Arrow -->
  <path d="M 320 170 L 370 170" stroke="#ef4444" stroke-width="4" marker-end="url(#warnarrow)"/>
  <text x="350" y="155" text-anchor="middle" font-size="11" fill="#dc2626">Click "Switch"</text>

  <!-- After -->
  <rect x="390" y="70" width="260" height="200" fill="#fee2e2" stroke="#ef4444" stroke-width="3" rx="8"/>
  <text x="520" y="100" text-anchor="middle" font-size="14" font-weight="700" fill="#dc2626">AFTER SWITCH</text>
  <text x="410" y="130" font-size="12" fill="#7f1d1d">❌ Homepage: broken</text>
  <text x="410" y="155" font-size="12" fill="#7f1d1d">❌ Menu: gone</text>
  <text x="410" y="180" font-size="12" fill="#7f1d1d">❌ About: text jumbled</text>
  <text x="410" y="205" font-size="12" fill="#7f1d1d">❌ Contact: form broken</text>
  <text x="410" y="230" font-size="12" fill="#7f1d1d">❌ Gallery: images lost</text>
  <text x="410" y="255" font-size="12" fill="#dc2626">⚠️ 60% content destroyed</text>

  <!-- Bottom message -->
  <rect x="100" y="300" width="500" height="60" fill="#fef3c7" stroke="#f59e0b" stroke-width="2" rx="8"/>
  <text x="350" y="325" text-anchor="middle" font-size="13" font-weight="700" fill="#92400e">Wix Warning: "Switching templates may affect content"</text>
  <text x="350" y="345" text-anchor="middle" font-size="12" fill="#78350f">Reality: "You will lose work. Choose carefully."</text>

  <defs>
    <marker id="warnarrow" markerWidth="10" markerHeight="10" refX="9" refY="3" orient="auto">
      <polygon points="0 0, 10 3, 0 6" fill="#ef4444"/>
    </marker>
  </defs>
</svg>