<svg width="700" height="380" viewBox="0 0 700 380" xmlns="http://www.w3.org/2000/svg">
  <rect width="700" height="380" fill="#f9fafb" rx="8"/>
  <text x="350" y="35" text-anchor="middle" font-size="18" font-weight="900" fill="#1f2937">AI Generates Functional WooCommerce Sites</text>

  <!-- AI Generation -->
  <rect x="30" y="70" width="180" height="120" fill="#8b5cf6" rx="8"/>
  <text x="120" y="105" text-anchor="middle" font-size="16" font-weight="900" fill="#ffffff">AI Generator</text>
  <text x="120" y="130" text-anchor="middle" font-size="12" fill="#ffffff/90">"Handmade jewelry</text>
  <text x="120" y="150" text-anchor="middle" font-size="12" fill="#ffffff/90">shop with online store"</text>
  <text x="120" y="175" text-anchor="middle" font-size="13" font-weight="700" fill="#ffffff">Click Generate</text>

  <!-- Arrow -->
  <path d="M 220 130 L 270 130" stroke="#8b5cf6" stroke-width="4" marker-end="url(#arrow)"/>
  <defs>
    <marker id="arrow" markerWidth="10" markerHeight="10" refX="9" refY="3" orient="auto">
      <polygon points="0 0, 10 3, 0 6" fill="#8b5cf6"/>
    </marker>
  </defs>

  <!-- Generated Site -->
  <rect x="280" y="70" width="390" height="280" fill="#ffffff" stroke="#d1d5db" stroke-width="2" rx="8"/>
  <text x="475" y="100" text-anchor="middle" font-size="14" font-weight="700" fill="#1f2937">Generated E-Commerce Site</text>

  <text x="300" y="140" font-size="13" fill="#374151">✓ Homepage with hero section</text>
  <text x="300" y="165" font-size="13" fill="#374151">✓ Product grid layout</text>
  <text x="300" y="190" font-size="13" fill="#374151">✓ About & Contact pages</text>

  <line x1="300" y1="210" x2="650" y2="210" stroke="#e5e7eb" stroke-width="2"/>

  <text x="300" y="240" font-size="13" fill="#8b5cf6" font-weight="700">🛒 WooCommerce Pre-Wired:</text>
  <text x="320" y="265" font-size="12" fill="#374151">• Product categories & variations</text>
  <text x="320" y="285" font-size="12" fill="#374151">• Shopping cart & checkout</text>
  <text x="320" y="305" font-size="12" fill="#374151">• Payment gateway integration</text>
  <text x="320" y="325" font-size="12" fill="#374151">• Inventory management</text>

  <rect x="400" y="50" width="200" height="30" fill="#d1fae5" rx="4"/>
  <text x="500" y="70" text-anchor="middle" font-size="12" font-weight="700" fill="#047857">Backend works. Design needs polish.</text>
</svg>