<svg width="600" height="300" viewBox="0 0 600 300" xmlns="http://www.w3.org/2000/svg">
  <rect width="600" height="300" fill="#fef3c7" rx="8"/>
  <text x="300" y="30" text-anchor="middle" font-size="18" font-weight="900" fill="#92400e">AI Generation vs Template Selection</text>
  
  <!-- AI Path -->
  <rect x="30" y="55" width="265" height="180" fill="#fee2e2" stroke="#dc2626" stroke-width="2" rx="5"/>
  <text x="162" y="80" font-size="13" font-weight="900" fill="#991b1b" text-anchor="middle">AI Generation Path</text>
  
  <rect x="45" y="95" width="235" height="25" fill="#ffffff" stroke="#dc2626" stroke-width="1" rx="3"/>
  <text x="162" y="112" font-size="11" fill="#374151" text-anchor="middle">1. Answer 5 questions</text>
  
  <rect x="45" y="125" width="235" height="25" fill="#ffffff" stroke="#dc2626" stroke-width="1" rx="3"/>
  <text x="162" y="142" font-size="11" fill="#374151" text-anchor="middle">2. Wait 2 minutes</text>
  
  <rect x="45" y="155" width="235" height="25" fill="#ffffff" stroke="#dc2626" stroke-width="1" rx="3"/>
  <text x="162" y="172" font-size="11" fill="#374151" text-anchor="middle">3. Get random template assigned</text>
  
  <rect x="45" y="185" width="235" height="25" fill="#fee2e2" stroke="#dc2626" stroke-width="1" rx="3"/>
  <text x="162" y="202" font-size="10" font-weight="700" fill="#991b1b" text-anchor="middle">Result: Template with your text</text>
  
  <text x="162" y="225" font-size="10" fill="#dc2626" text-anchor="middle">"AI exists to claim 'AI builder' status"</text>
  
  <!-- Template Path -->
  <rect x="305" y="55" width="265" height="180" fill="#d1fae5" stroke="#22c55e" stroke-width="2" rx="5"/>
  <text x="437" y="80" font-size="13" font-weight="900" fill="#059669" text-anchor="middle">Template Selection Path</text>
  
  <rect x="320" y="95" width="235" height="25" fill="#ffffff" stroke="#22c55e" stroke-width="1" rx="3"/>
  <text x="437" y="112" font-size="11" fill="#374151" text-anchor="middle">1. Browse library</text>
  
  <rect x="320" y="125" width="235" height="25" fill="#ffffff" stroke="#22c55e" stroke-width="1" rx="3"/>
  <text x="437" y="142" font-size="11" fill="#374151" text-anchor="middle">2. Pick best template</text>
  
  <rect x="320" y="155" width="235" height="25" fill="#ffffff" stroke="#22c55e" stroke-width="1" rx="3"/>
  <text x="437" y="172" font-size="11" fill="#374151" text-anchor="middle">3. Replace content</text>
  
  <rect x="320" y="185" width="235" height="25" fill="#d1fae5" stroke="#22c55e" stroke-width="1" rx="3"/>
  <text x="437" y="202" font-size="10" font-weight="700" fill="#059669" text-anchor="middle">Result: Better design (your choice)</text>
  
  <text x="437" y="225" font-size="10" fill="#059669" text-anchor="middle">"Same result in half the time"</text>
  
  <!-- Bottom verdict -->
  <rect x="30" y="245" width="540" height="40" fill="#1f2937" rx="3"/>
  <text x="300" y="265" font-size="12" font-weight="700" fill="#ffffff" text-anchor="middle">The Verdict</text>
  <text x="300" y="280" font-size="11" fill="#fbbf24" text-anchor="middle">Bookmark's AI is marketing, not substance. Skip AI, pick templates yourself.</text>
</svg>