<svg width="600" height="280" viewBox="0 0 600 280" xmlns="http://www.w3.org/2000/svg">
  <rect width="600" height="280" fill="#fef3c7" rx="8"/>
  <text x="300" y="30" text-anchor="middle" font-size="18" font-weight="900" fill="#92400e">Rebuild From Scratch: Faster Than Fixing</text>
  
  <!-- Fix export path -->
  <rect x="30" y="55" width="265" height="150" fill="#fee2e2" stroke="#dc2626" stroke-width="2" rx="5"/>
  <text x="162" y="80" font-size="13" font-weight="900" fill="#991b1b" text-anchor="middle">Fix Codedesign Export</text>
  
  <rect x="45" y="95" width="235" height="25" fill="#ffffff" stroke="#dc2626" stroke-width="1" rx="3"/>
  <text x="162" y="112" font-size="11" fill="#374151" text-anchor="middle">Codedesign generation: 60s</text>
  
  <rect x="45" y="125" width="235" height="25" fill="#ffffff" stroke="#dc2626" stroke-width="1" rx="3"/>
  <text x="162" y="142" font-size="11" fill="#374151" text-anchor="middle">Export attempt: 30 min</text>
  
  <rect x="45" y="155" width="235" height="25" fill="#fee2e2" stroke="#dc2626" stroke-width="1" rx="3"/>
  <text x="162" y="172" font-size="10" font-weight="700" fill="#991b1b" text-anchor="middle">Realization: Code is unusable</text>
  
  <rect x="45" y="185" width="235" height="25" fill="#dc2626" rx="3"/>
  <text x="162" y="202" font-size="10" font-weight="700" fill="#ffffff" text-anchor="middle">Time to fix: ∞ (impossible)</text>
  
  <!-- Rebuild path -->
  <rect x="305" y="55" width="265" height="150" fill="#d1fae5" stroke="#22c55e" stroke-width="2" rx="5"/>
  <text x="437" y="80" font-size="13" font-weight="900" fill="#059669" text-anchor="middle">Rebuild in Framer</text>
  
  <rect x="320" y="95" width="235" height="25" fill="#ffffff" stroke="#22c55e" stroke-width="1" rx="3"/>
  <text x="437" y="112" font-size="11" fill="#374151" text-anchor="middle">Use Codedesign as reference: 0s</text>
  
  <rect x="320" y="125" width="235" height="25" fill="#ffffff" stroke="#22c55e" stroke-width="1" rx="3"/>
  <text x="437" y="142" font-size="11" fill="#374151" text-anchor="middle">Rebuild from scratch: 2 hours</text>
  
  <rect x="320" y="155" width="235" height="25" fill="#d1fae5" stroke="#22c55e" stroke-width="1" rx="3"/>
  <text x="437" y="172" font-size="10" font-weight="700" fill="#059669" text-anchor="middle">Result: Better design, clean code</text>
  
  <rect x="320" y="185" width="235" height="25" fill="#22c55e" rx="3"/>
  <text x="437" y="202" font-size="10" font-weight="700" fill="#ffffff" text-anchor="middle">Total: 2.5 hours to better result</text>
  
  <!-- Bottom verdict -->
  <rect x="30" y="220" width="540" height="40" fill="#1f2937" rx="3"/>
  <text x="300" y="240" font-size="12" font-weight="700" fill="#ffffff" text-anchor="middle">The Verdict</text>
  <text x="300" y="255" font-size="10" fill="#fbbf24" text-anchor="middle">Codedesign is a $29+/mo wireframing tool. Use free tools for inspiration, build properly in Framer.</text>
  
  <!-- Bottom note -->
  <text x="300" y="275" font-size="10" fill="#374151" text-anchor="middle">Reference generator, not a production tool</text>
</svg>