<svg width="600" height="260" viewBox="0 0 600 260" xmlns="http://www.w3.org/2000/svg">
  <rect width="600" height="260" fill="#eff6ff" rx="8"/>
  <text x="300" y="30" text-anchor="middle" font-size="18" font-weight="900" fill="#1e40af">💰 Invoicing: Built-in & Connected</text>

  <!-- Invoice creation -->
  <rect x="20" y="50" width="270" height="190" fill="#ffffff" stroke="#3b82f6" stroke-width="2" rx="6"/>
  <text x="155" y="75" text-anchor="middle" font-size="12" font-weight="900" fill="#1e40af">Create Invoice</text>
  <text x="35" y="100" font-size="10" font-weight="700" fill="#374151">Client: John Smith</text>
  <text x="35" y="120" font-size="10" font-weight="700" fill="#374151">Line Items:</text>
  <text x="40" y="140" font-size="9" fill="#6b7280">• Website Design $1,500</text>
  <text x="40" y="158" font-size="9" fill="#6b7280">• Hosting $300</text>
  <line x1="35" y1="170" x2="275" y2="170" stroke="#e5e7eb" stroke-width="1"/>
  <text x="35" y="190" font-size="11" font-weight="900" fill="#1e40af">Total: $1,800</text>
  <rect x="35" y="205" width="100" height="25" fill="#3b82f6" rx="3"/>
  <text x="85" y="222" text-anchor="middle" font-size="10" font-weight="700" fill="#ffffff">Send Invoice</text>

  <!-- Payment flow -->
  <rect x="310" y="50" width="270" height="190" fill="#ffffff" stroke="#10b981" stroke-width="2" rx="6"/>
  <text x="445" y="75" text-anchor="middle" font-size="12" font-weight="900" fill="#065f46">Client Receives → Pays</text>

  <rect x="330" y="95" width="230" height="40" fill="#f0fdf4" rx="4"/>
  <text x="445" y="115" text-anchor="middle" font-size="10" font-weight="700" fill="#065f46">📧 Email with payment link</text>
  <text x="445" y="130" text-anchor="middle" font-size="9" fill="#6b7280">Click to pay $1,800</text>

  <rect x="330" y="145" width="230" height="40" fill="#f0fdf4" rx="4"/>
  <text x="445" y="165" text-anchor="middle" font-size="10" font-weight="700" fill="#065f46">💳 Stripe payment</text>
  <text x="445" y="180" text-anchor="middle" font-size="9" fill="#6b7280">Money to your account</text>

  <rect x="330" y="195" width="230" height="35" fill="#ecfdf5" rx="4"/>
  <text x="445" y="215" text-anchor="middle" font-size="10" font-weight="900" fill="#059669">✓ Payment Complete</text>
  <text x="445" y="228" text-anchor="middle" font-size="8" fill="#6b7280">Invoice marked paid</text>

  <text x="300" y="255" text-anchor="middle" font-size="11" font-weight="700" fill="#1e40af">Tested: Invoice → Email → Payment → Stripe (worked first try)</text>
</svg>