<svg width="600" height="280" viewBox="0 0 600 280" xmlns="http://www.w3.org/2000/svg">
  <rect width="600" height="280" fill="#fef3c7" rx="8"/>
  <text x="300" y="30" text-anchor="middle" font-size="18" font-weight="900" fill="#92400e">Jimdo E-commerce: EU-Focused, Solid</text>
  
  <!-- Features -->
  <rect x="30" y="55" width="265" height="140" fill="#d1fae5" stroke="#22c55e" stroke-width="2" rx="5"/>
  <text x="162" y="80" font-size="13" font-weight="900" fill="#059669" text-anchor="middle">Standard Features</text>
  
  <text x="45" y="105" font-size="11" fill="#059669">✓ Product variants</text>
  <text x="45" y="125" font-size="11" fill="#059669">✓ Inventory tracking</text>
  <text x="45" y="145" font-size="11" fill="#059669">✓ Ajax cart</text>
  <text x="45" y="165" font-size="11" fill="#059669">✓ Stripe/PayPal</text>
  
  <rect x="45" y="180" width="230" height="25" fill="#22c55e" rx="3"/>
  <text x="162" y="197" font-size="10" font-weight="700" fill="#ffffff" text-anchor="middle">Works reliably</text>
  
  <!-- EU advantages -->
  <rect x="305" y="55" width="265" height="140" fill="#a7f3d0" stroke="#22c55e" stroke-width="2" rx="5"/>
  <text x="437" y="80" font-size="13" font-weight="900" fill="#059669" text-anchor="middle">EU Advantages</text>
  
  <text x="320" y="105" font-size="11" fill="#059669">✓ Sofort (popular EU payment)</text>
  <text x="320" y="125" font-size="11" fill="#059669">✓ EU shipping zones</text>
  <text x="320" y="145" font-size="11" fill="#059669">✓ VAT handling (crucial)</text>
  <text x="320" y="165" font-size="11" fill="#059669">✓ GDPR compliant</text>
  
  <rect x="320" y="180" width="230" height="25" fill="#22c55e" rx="3"/>
  <text x="437" y="197" font-size="10" font-weight="700" fill="#ffffff" text-anchor="middle">Saves EU setup headaches</text>
  
  <!-- Comparison -->
  <rect x="30" y="210" width="540" height="50" fill="#1f2937" rx="3"/>
  <text x="300" y="230" font-size="12" font-weight="700" fill="#ffffff" text-anchor="middle">E-commerce Comparison</text>
  <text x="150" y="250" font-size="10" fill="#9ca3af" text-anchor="middle">Shopify: More features, needs EU config</text>
  <text x="450" y="250" font-size="10" fill="#fbbf24" text-anchor="middle">Jimdo: "Ugly but functional" for EU</text>
  
  <text x="300" y="275" font-size="10" fill="#374151" text-anchor="middle">Best for: 1-50 products, EU small businesses</text>
</svg>