<svg width="600" height="280" viewBox="0 0 600 280" xmlns="http://www.w3.org/2000/svg">
  <rect width="600" height="280" fill="#fef3c7" rx="8"/>
  <text x="300" y="30" text-anchor="middle" font-size="18" font-weight="900" fill="#92400e">"German Engineering": Earned Reputation</text>
  
  <!-- Quality metrics -->
  <rect x="30" y="55" width="175" height="150" fill="#d1fae5" stroke="#22c55e" stroke-width="2" rx="5"/>
  <text x="117" y="80" font-size="12" font-weight="900" fill="#059669" text-anchor="middle">Reliability</text>
  
  <text x="45" y="110" font-size="11" fill="#059669">99.95% uptime</text>
  <text x="45" y="130" font-size="10" fill="#059669">(3 months tested)</text>
  <text x="45" y="150" font-size="10" fill="#059669">Zero downtime</text>
  <text x="45" y="170" font-size="10" fill="#059669">incidents</text>
  
  <rect x="45" y="185" width="145" height="20" fill="#22c55e" rx="2"/>
  <text x="117" y="198" font-size="9" font-weight="700" fill="#ffffff" text-anchor="middle">Rock solid</text>
  
  <!-- Technical quality -->
  <rect x="212" y="55" width="175" height="150" fill="#d1fae5" stroke="#22c55e" stroke-width="2" rx="5"/>
  <text x="300" y="80" font-size="12" font-weight="900" fill="#059669" text-anchor="middle">Technical</text>
  
  <text x="227" y="110" font-size="11" fill="#059669">Clean HTML</text>
  <text x="227" y="130" font-size="10" fill="#059669">No bloated scripts</text>
  <text x="227" y="150" font-size="10" fill="#059669">Fast server response</text>
  <text x="227" y="170" font-size="10" fill="#059669">(Not design-fast)</text>
  
  <rect x="227" y="185" width="145" height="20" fill="#22c55e" rx="2"/>
  <text x="300" y="198" font-size="9" font-weight="700" fill="#ffffff" text-anchor="middle">Well-coded</text>
  
  <!-- Support -->
  <rect x="395" y="55" width="175" height="150" fill="#d1fae5" stroke="#22c55e" stroke-width="2" rx="5"/>
  <text x="482" y="80" font-size="12" font-weight="900" fill="#059669" text-anchor="middle">Support</text>
  
  <text x="410" y="110" font-size="11" fill="#059669">EU timezone</text>
  <text x="410" y="130" font-size="10" fill="#059669">German/English</text>
  <text x="410" y="150" font-size="10" fill="#059669">Thorough (not fast)</text>
  <text x="410" y="170" font-size="10" fill="#059669">No crashes, no bugs</text>
  
  <rect x="410" y="185" width="145" height="20" fill="#22c55e" rx="2"/>
  <text x="482" y="198" font-size="9" font-weight="700" fill="#ffffff" text-anchor="middle">Dependable</text>
  
  <!-- Bottom verdict -->
  <rect x="30" y="220" width="540" height="45" fill="#1f2937" rx="3"/>
  <text x="300" y="240" font-size="12" font-weight="700" fill="#ffffff" text-anchor="middle">The Engineering Reality</text>
  <text x="300" y="260" font-size="10" fill="#fbbf24" text-anchor="middle">Not flashy, but reliable. Solid, not held together with duct tape.</text>
  
  <text x="300" y="275" font-size="10" fill="#374151" text-anchor="middle">For EU businesses valuing dependability over innovation</text>
</svg>