<svg width="600" height="320" viewBox="0 0 600 320" xmlns="http://www.w3.org/2000/svg">
  <rect width="600" height="320" fill="#fef3c7" rx="8"/>
  <text x="300" y="30" text-anchor="middle" font-size="18" font-weight="900" fill="#92400e">Compliance vs Design: The Math</text>
  
  <!-- Jimdo option -->
  <rect x="30" y="55" width="265" height="180" fill="#d1fae5" stroke="#22c55e" stroke-width="2" rx="5"/>
  <text x="162" y="80" font-size="13" font-weight="900" fill="#059669" text-anchor="middle">Jimdo Option</text>
  
  <text x="45" y="105" font-size="11" font-weight="700" fill="#059669">Price: $9-15/mo</text>
  <text x="45" y="125" font-size="10" fill="#059669">Includes: GDPR compliance</text>
  <text x="45" y="140" font-size="10" fill="#059669">• EU hosting</text>
  <text x="45" y="155" font-size="10" fill="#059669">• Cookie consent</text>
  <text x="45" y="170" font-size="10" fill="#059669">• Legal templates</text>
  <text x="45" y="185" font-size="10" fill="#991b1b">• Dated templates</text>
  
  <rect x="45" y="200" width="230" height="25" fill="#22c55e" rx="3"/>
  <text x="162" y="217" font-size="11" font-weight="700" fill="#ffffff" text-anchor="middle">~$180/year</text>
  
  <!-- US builder option -->
  <rect x="305" y="55" width="265" height="180" fill="#fee2e2" stroke="#dc2626" stroke-width="2" rx="5"/>
  <text x="437" y="80" font-size="13" font-weight="900" fill="#991b1b" text-anchor="middle">US Builder + Compliance</text>
  
  <text x="320" y="105" font-size="11" font-weight="700" fill="#991b1b">Framer/Wix: $15-30/mo</text>
  <text x="320" y="125" font-size="10" fill="#991b1b">Plus compliance costs:</text>
  <text x="320" y="140" font-size="10" fill="#991b1b">• EU data add-on: $10-30/mo</text>
  <text x="320" y="155" font-size="10" fill="#991b1b">• Cookie consent: $5-15/mo</text>
  <text x="320" y="170" font-size="10" fill="#991b1b">• Legal review: $500-1000</text>
  <text x="320" y="185" font-size="10" fill="#991b1b">• GDPR consultant: $100-200/h</text>
  
  <rect x="320" y="200" width="230" height="25" fill="#dc2626" rx="3"/>
  <text x="437" y="217" font-size="11" font-weight="700" fill="#ffffff" text-anchor="middle">$1000-3000 first year</text>
  
  <!-- Bottom comparison -->
  <rect x="30" y="250" width="540" height="55" fill="#1f2937" rx="3"/>
  <text x="300" y="275" font-size="13" font-weight="700" fill="#ffffff" text-anchor="middle">The Tradeoff Decision</text>
  <text x="150" y="295" font-size="10" fill="#22c55e" text-anchor="middle">Budget EU: Jimdo math wins</text>
  <text x="450" y="295" font-size="10" fill="#3b82f6" text-anchor="middle">Design brands: Pay for compliance</text>
</svg>