<svg width="700" height="420" viewBox="0 0 700 420" xmlns="http://www.w3.org/2000/svg">
  <rect width="700" height="420" fill="#f9fafb" rx="8"/>

  <text x="350" y="35" text-anchor="middle" font-size="18" font-weight="900" fill="#1f2937">Head-to-Head: Mixo vs Durable</text>

  <!-- Mixo column -->
  <rect x="50" y="70" width="280" height="310" fill="#ffffff" stroke="#8b5cf6" stroke-width="3" rx="8"/>
  <rect x="50" y="70" width="280" height="40" fill="#8b5cf6" rx="8"/>
  <text x="190" y="97" text-anchor="middle" font-size="16" font-weight="900" fill="#ffffff">MIXO</text>

  <text x="70" y="140" font-size="13" fill="#374151">Generation speed: 31.6s</text>
  <text x="70" y="170" font-size="13" fill="#374151">Design quality: 8.5/10</text>
  <text x="70" y="200" font-size="13" fill="#374151">Customization: Limited</text>
  <text x="70" y="230" font-size="13" fill="#374151">AI copy: Basic</text>
  <text x="70" y="260" font-size="13" fill="#374151">Domain setup: 4 min ✓</text>
  <text x="70" y="290" font-size="13" fill="#374151">Price: $9/month</text>

  <line x1="70" y1="310" x2="310" y2="310" stroke="#e5e7eb" stroke-width="2"/>

  <rect x="70" y="325" width="240" height="40" fill="#fef3c7" rx="4"/>
  <text x="190" y="345" text-anchor="middle" font-size="12" font-weight="700" fill="#92400e">BEST FOR: Speed demons</text>
  <text x="190" y="360" text-anchor="middle" font-size="11" fill="#78350f">Need it live NOW? Mixo wins.</text>

  <!-- Durable column -->
  <rect x="370" y="70" width="280" height="310" fill="#ffffff" stroke="#10b981" stroke-width="3" rx="8"/>
  <rect x="370" y="70" width="280" height="40" fill="#10b981" rx="8"/>
  <text x="510" y="97" text-anchor="middle" font-size="16" font-weight="900" fill="#ffffff">DURABLE</text>

  <text x="390" y="140" font-size="13" fill="#374151">Generation speed: 29s ✓</text>
  <text x="390" y="170" font-size="13" fill="#374151">Design quality: 8.8/10 ✓</text>
  <text x="390" y="200" font-size="13" fill="#047857">Customization: Excellent ✓</text>
  <text x="390" y="230" font-size="13" fill="#047857">AI copy: Superior ✓</text>
  <text x="390" y="260" font-size="13" fill="#374151">Domain setup: 5 min</text>
  <text x="390" y="290" font-size="13" fill="#374151">Price: $12/month</text>

  <line x1="390" y1="310" x2="630" y2="310" stroke="#e5e7eb" stroke-width="2"/>

  <rect x="390" y="325" width="240" height="40" fill="#d1fae5" rx="4"/>
  <text x="510" y="345" text-anchor="middle" font-size="12" font-weight="700" fill="#047857">BEST FOR: Quality seekers</text>
  <text x="510" y="360" text-anchor="middle" font-size="11" fill="#065f46">Better result, worth the wait.</text>

  <text x="350" y="405" text-anchor="middle" font-size="12" fill="#6b7280">Speed tie. Durable wins on everything else.</text>
</svg>