<svg width="700" height="380" viewBox="0 0 700 380" xmlns="http://www.w3.org/2000/svg">
  <rect width="700" height="380" fill="#f9fafb" rx="8"/>

  <text x="350" y="35" text-anchor="middle" font-size="18" font-weight="900" fill="#1f2937">Lock-In Reality Check</text>

  <!-- Mixo -->
  <rect x="50" y="70" width="280" height="260" fill="#fee2e2" stroke="#ef4444" stroke-width="3" rx="8"/>
  <rect x="50" y="70" width="280" height="40" fill="#ef4444" rx="8"/>
  <text x="190" y="97" text-anchor="middle" font-size="16" font-weight="900" fill="#ffffff">MIXO</text>

  <text x="70" y="140" font-size="13" fill="#7f1d1d">❌ No code export</text>
  <text x="70" y="170" font-size="13" fill="#7f1d1d">❌ No self-hosting</text>
  <text x="70" y="200" font-size="13" fill="#7f1d1d">❌ Leaving = rebuild from scratch</text>
  <text x="70" y="230" font-size="13" fill="#7f1d1d">❌ Can't take design with you</text>
  <text x="70" y="260" font-size="13" fill="#7f1d1d">❌ Platform hostage</text>

  <rect x="70" y="285" width="240" height="30" fill="#ef4444" rx="4"/>
  <text x="190" y="305" text-anchor="middle" font-size="12" font-weight="700" fill="#ffffff">HARD LOCK-IN</text>

  <!-- Webflow -->
  <rect x="370" y="70" width="280" height="260" fill="#fef3c7" stroke="#f59e0b" stroke-width="3" rx="8"/>
  <rect x="370" y="70" width="280" height="40" fill="#f59e0b" rx="8"/>
  <text x="510" y="97" text-anchor="middle" font-size="16" font-weight="900" fill="#ffffff">WEBFLOW</text>

  <text x="390" y="140" font-size="13" fill="#78350f">⚠️ Code export available</text>
  <text x="390" y="170" font-size="13" fill="#78350f">⚠️ Self-hosting possible</text>
  <text x="390" y="200" font-size="13" fill="#78350f">⚠️ Export = 2,100 clean lines</text>
  <text x="390" y="230" font-size="13" fill="#78350f">⚠️ Handoff to developers</text>
  <text x="390" y="260" font-size="13" fill="#78350f">⚠️ Still involves rebuild</text>

  <rect x="390" y="285" width="240" height="30" fill="#f59e0b" rx="4"/>
  <text x="510" y="305" text-anchor="middle" font-size="12" font-weight="700" fill="#ffffff">SOFTER LOCK-IN</text>

  <text x="350" y="360" text-anchor="middle" font-size="12" fill="#6b7280">All AI builders have lock-in. Some are harder than others.</text>
</svg>