<svg width="600" height="300" viewBox="0 0 600 300" xmlns="http://www.w3.org/2000/svg">
  <rect width="600" height="300" fill="#fef2f2" rx="8"/>
  <text x="300" y="30" text-anchor="middle" font-size="18" font-weight="900" fill="#991b1b">"Local Business Features": Everyone Has Them</text>

  <text x="30" y="60" font-size="11" font-weight="700" fill="#374151">FEATURE</text>
  <text x="200" y="60" text-anchor="middle" font-size="11" font-weight="700" fill="#92400e">Pineapple</text>
  <text x="350" y="60" text-anchor="middle" font-size="11" font-weight="700" fill="#166534">Durable</text>
  <text x="500" y="60" text-anchor="middle" font-size="11" font-weight="700" fill="#1e40af">Mixo</text>

  <rect x="20" y="75" width="560" height="35" fill="#ffffff" stroke="#fecaca" stroke-width="1" rx="3"/>
  <text x="30" y="98" font-size="10" font-weight="700" fill="#374151">Online Booking</text>
  <text x="200" y="98" text-anchor="middle" font-size="14" fill="#f59e0b">⚠️</text>
  <text x="350" y="98" text-anchor="middle" font-size="14" fill="#10b981">✓</text>
  <text x="500" y="98" text-anchor="middle" font-size="14" fill="#10b981">✓</text>
  <text x="200" y="108" text-anchor="middle" font-size="8" fill="#6b7280">Calendly only</text>

  <rect x="20" y="115" width="560" height="35" fill="#ffffff" stroke="#fecaca" stroke-width="1" rx="3"/>
  <text x="30" y="138" font-size="10" font-weight="700" fill="#374151">Contact Forms</text>
  <text x="200" y="138" text-anchor="middle" font-size="14" fill="#10b981">✓</text>
  <text x="350" y="138" text-anchor="middle" font-size="14" fill="#10b981">✓</text>
  <text x="500" y="138" text-anchor="middle" font-size="14" fill="#10b981">✓</text>

  <rect x="20" y="155" width="560" height="35" fill="#ffffff" stroke="#fecaca" stroke-width="1" rx="3"/>
  <text x="30" y="178" font-size="10" font-weight="700" fill="#374151">Google Maps</text>
  <text x="200" y="178" text-anchor="middle" font-size="14" fill="#10b981">✓</text>
  <text x="350" y="178" text-anchor="middle" font-size="14" fill="#10b981">✓</text>
  <text x="500" y="178" text-anchor="middle" font-size="14" fill="#10b981">✓</text>

  <rect x="20" y="195" width="560" height="35" fill="#ffffff" stroke="#fecaca" stroke-width="1" rx="3"/>
  <text x="30" y="218" font-size="10" font-weight="700" fill="#374151">Built-in CRM</text>
  <text x="200" y="218" text-anchor="middle" font-size="14" fill="#dc2626">✗</text>
  <text x="350" y="218" text-anchor="middle" font-size="14" fill="#10b981">✓</text>
  <text x="500" y="218" text-anchor="middle" font-size="14" fill="#dc2626">✗</text>

  <rect x="20" y="235" width="560" height="35" fill="#ffffff" stroke="#fecaca" stroke-width="1" rx="3"/>
  <text x="30" y="258" font-size="10" font-weight="700" fill="#374151">Menu/Service List</text>
  <text x="200" y="258" text-anchor="middle" font-size="14" fill="#10b981">✓</text>
  <text x="350" y="258" text-anchor="middle" font-size="14" fill="#10b981">✓</text>
  <text x="500" y="258" text-anchor="middle" font-size="14" fill="#10b981">✓</text>

  <text x="300" y="295" text-anchor="middle" font-size="11" font-weight="700" fill="#991b1b">Pineapple has FEWER features, not "specialized" features</text>
</svg>