<svg width="600" height="280" viewBox="0 0 600 280" xmlns="http://www.w3.org/2000/svg">
  <rect width="600" height="280" fill="#fef3c7" rx="8"/>
  <text x="300" y="30" text-anchor="middle" font-size="18" font-weight="900" fill="#92400e">Free Plan Reality: "Try Before You Buy"</text>
  
  <!-- Site123 free -->
  <rect x="30" y="55" width="265" height="130" fill="#fee2e2" stroke="#dc2626" stroke-width="2" rx="5"/>
  <text x="162" y="80" font-size="13" font-weight="900" fill="#991b1b" text-anchor="middle">Site123 Free</text>
  
  <text x="45" y="105" font-size="10" fill="#991b1b">✗ site123.com subdomain</text>
  <text x="45" y="120" font-size="10" fill="#991b1b">✗ Site123 branding footer</text>
  <text x="45" y="135" font-size="10" fill="#991b1b">✗ 5 templates only</text>
  <text x="45" y="150" font-size="10" fill="#991b1b">✗ No e-commerce</text>
  <text x="45" y="165" font-size="10" fill="#dc2626">Embarrassing for business</text>
  
  <rect x="45" y="175" width="230" height="25" fill="#dc2626" rx="3"/>
  <text x="162" y="192" font-size="10" font-weight="700" fill="#ffffff" text-anchor="middle">"Try before you buy"</text>
  
  <!-- Competitors free -->
  <rect x="305" y="55" width="265" height="130" fill="#d1fae5" stroke="#22c55e" stroke-width="2" rx="5"/>
  <text x="437" y="80" font-size="13" font-weight="900" fill="#059669" text-anchor="middle">Mixo/Durable Free</text>
  
  <text x="320" y="105" font-size="10" fill="#059669">✓ Better templates</text>
  <text x="320" y="120" font-size="10" fill="#059669">✓ Cleaner branding</text>
  <text x="320" y="135" font-size="10" fill="#059669">✓ More features</text>
  <text x="320" y="150" font-size="10" fill="#059669">✓ Durable: free CRM</text>
  <text x="320" y="165" font-size="10" fill="#059669">Usable for testing</text>
  
  <rect x="320" y="175" width="230" height="25" fill="#22c55e" rx="3"/>
  <text x="437" y="192" font-size="10" font-weight="700" fill="#ffffff" text-anchor="middle">Better free value</text>
  
  <!-- Bottom -->
  <rect x="30" y="200" width="540" height="60" fill="#1f2937" rx="3"/>
  <text x="300" y="225" font-size="13" font-weight="700" fill="#ffffff" text-anchor="middle">Site123 Only Advantage</text>
  <text x="300" y="245" font-size="11" fill="#fbbf24" text-anchor="middle">Pure simplicity: fewer options, fewer decisions, faster to deploy</text>
  <text x="300" y="260" font-size="10" fill="#9ca3af" text-anchor="middle">If budget is absolute zero: Mixo/Durable free tiers are better</text>
</svg>