<svg width="700" height="450" viewBox="0 0 700 450" xmlns="http://www.w3.org/2000/svg">
  <rect width="700" height="450" fill="#f9fafb" rx="8"/>

  <text x="350" y="35" text-anchor="middle" font-size="18" font-weight="900" fill="#1f2937">Blueprint AI Setup Flow</text>

  <!-- Flow steps -->
  <g transform="translate(50, 70)">
    <!-- Step 1 -->
    <rect x="0" y="0" width="240" height="70" fill="#ffffff" stroke="#3b82f6" stroke-width="2" rx="8"/>
    <text x="120" y="25" text-anchor="middle" font-size="12" font-weight="700" fill="#1f2937">Question 1/8</text>
    <text x="120" y="45" text-anchor="middle" font-size="11" fill="#6b7280">"What's your site about?"</text>

    <!-- Arrow -->
    <path d="M 240 35 L 280 35" stroke="#9ca3af" stroke-width="2" marker-end="url(#arrow3)"/>

    <!-- Step 2 -->
    <rect x="290" y="0" width="240" height="70" fill="#ffffff" stroke="#3b82f6" stroke-width="2" rx="8"/>
    <text x="410" y="25" text-anchor="middle" font-size="12" font-weight="700" fill="#1f2937">Question 2/8</text>
    <text x="410" y="45" text-anchor="middle" font-size="11" fill="#6b7280">"What's your goal?"</text>

    <!-- Arrow -->
    <path d="M 530 35 L 570 35" stroke="#9ca3af" stroke-width="2" marker-end="url(#arrow3)"/>
  </g>

  <!-- Template selection -->
  <rect x="50" y="180" width="600" height="80" fill="#8b5cf6" rx="8"/>
  <text x="350" y="210" text-anchor="middle" font-size="14" font-weight="700" fill="#ffffff">AI Suggests Template</text>
  <text x="350" y="235" text-anchor="middle" font-size="12" fill="#ffffff/90">Based on your answers, Blueprint recommends: "Aria" for photography portfolios</text>

  <!-- Result -->
  <rect x="50" y="290" width="600" height="90" fill="#d1fae5" stroke="#10b981" stroke-width="2" rx="8"/>
  <text x="350" y="320" text-anchor="middle" font-size="14" font-weight="700" fill="#047857">✓ Site Generated in 14 Minutes</text>
  <text x="350" y="345" text-anchor="middle" font-size="12" fill="#065f46">Decent starter site. But you're following their path, not yours.</text>

  <!-- Bottom note -->
  <rect x="150" y="400" width="400" height="35" fill="#fef3c7" rx="4"/>
  <text x="350" y="422" text-anchor="middle" font-size="11" font-weight="700" fill="#92400e">Good for beginners. Constraining for pros.</text>

  <defs>
    <marker id="arrow3" markerWidth="10" markerHeight="10" refX="9" refY="3" orient="auto">
      <polygon points="0 0, 10 3, 0 6" fill="#9ca3af"/>
    </marker>
  </defs>
</svg>