<svg width="600" height="280" viewBox="0 0 600 280" xmlns="http://www.w3.org/2000/svg">
  <rect width="600" height="280" fill="#fef3c7" rx="8"/>
  <text x="300" y="30" text-anchor="middle" font-size="18" font-weight="900" fill="#92400e">E-commerce: Landing Page + Buy Buttons ≠ Real Store</text>
  
  <!-- What it's not -->
  <rect x="30" y="55" width="280" height="130" fill="#fee2e2" stroke="#dc2626" stroke-width="2" rx="5"/>
  <text x="170" y="80" font-size="12" font-weight="900" fill="#991b1b" text-anchor="middle">What It's NOT</text>
  
  <text x="50" y="105" font-size="10" fill="#dc2626">✗ No variants (size/color)</text>
  <text x="50" y="125" font-size="10" fill="#dc2626">✗ No inventory tracking</text>
  <text x="50" y="145" font-size="10" fill="#dc2626">✗ No abandoned cart recovery</text>
  <text x="50" y="165" font-size="10" fill="#dc2626">✗ Basic order management</text>
  
  <rect x="50" y="172" width="240" height="8" fill="#dc2626" rx="2"/>
  
  <!-- What it is -->
  <rect x="330" y="55" width="240" height="130" fill="#d1fae5" stroke="#22c55e" stroke-width="2" rx="5"/>
  <text x="450" y="80" font-size="12" font-weight="900" fill="#059669" text-anchor="middle">What It IS</text>
  
  <text x="350" y="105" font-size="10" fill="#059669">✓ Basic product layouts</text>
  <text x="350" y="125" font-size="10" fill="#059669">✓ Stripe/PayPal checkout</text>
  <text x="350" y="145" font-size="10" fill="#059669">✓ Cart works (feels add-on)</text>
  <text x="350" y="165" font-size="10" fill="#059669">✓ Buy buttons on landing page</text>
  
  <rect x="350" y="172" width="200" height="8" fill="#22c55e" rx="2"/>
  
  <!-- Comparison -->
  <rect x="30" y="195" width="540" height="50" fill="#1f2937" rx="3"/>
  <text x="300" y="215" font-size="11" font-weight="700" fill="#ffffff" text-anchor="middle">Compared to Real E-commerce</text>
  
  <text x="100" y="235" font-size="10" fill="#f59e0b" text-anchor="middle">Shopify</text>
  <text x="100" y="250" font-size="9" fill="#9ca3af" text-anchor="middle">Proper store</text>
  
  <text x="220" y="235" font-size="10" fill="#f59e0b" text-anchor="middle">Squarespace</text>
  <text x="220" y="250" font-size="9" fill="#9ca3af" text-anchor="middle">Decent e-com</text>
  
  <text x="340" y="235" font-size="10" fill="#dc2626" text-anchor="middle">Strikingly</text>
  <text x="340" y="250" font-size="9" fill="#9ca3af" text-anchor="middle">Lightweight</text>
  
  <text x="480" y="242" font-size="10" fill="#fbbf24" text-anchor="middle">Feels like add-on,</text>
  <text x="480" y="255" font-size="10" fill="#fbbf24" text-anchor="middle">not integrated</text>
  
  <!-- Bottom verdict -->
  <rect x="30" y="255" width="540" height="20" fill="#059669" rx="2"/>
  <text x="300" y="269" font-size="10" font-weight="700" fill="#ffffff" text-anchor="middle">Fine for 1-5 digital products as afterthought • Use for one-page marketing, not running a store</text>
</svg>