<svg width="600" height="280" viewBox="0 0 600 280" xmlns="http://www.w3.org/2000/svg">
  <rect width="600" height="280" fill="#d1fae5" rx="8"/>
  <text x="300" y="30" text-anchor="middle" font-size="18" font-weight="900" fill="#059669">Code Export: Production-Ready React</text>
  
  <!-- What was generated -->
  <rect x="30" y="55" width="260" height="130" fill="#ffffff" stroke="#22c55e" stroke-width="2" rx="5"/>
  <text x="160" y="80" font-size="12" font-weight="900" fill="#059669" text-anchor="middle">Generated: 5-Section Page</text>
  
  <text x="50" y="105" font-size="10" fill="#059669">✓ Hero</text>
  <text x="50" y="125" font-size="10" fill="#059669">✓ Features</text>
  <text x="50" y="145" font-size="10" fill="#059669">✓ Pricing</text>
  <text x="50" y="165" font-size="10" fill="#059669">✓ Testimonials</text>
  <text x="50" y="185" font-size="10" fill="#059669">✓ CTA</text>
  
  <!-- Export quality -->
  <rect x="310" y="55" width="260" height="130" fill="#ffffff" stroke="#3b82f6" stroke-width="2" rx="5"/>
  <text x="440" y="80" font-size="12" font-weight="900" fill="#1e40af" text-anchor="middle">React + TypeScript Export</text>
  
  <text x="330" y="105" font-size="10" fill="#1e40af">✓ Clean component structure</text>
  <text x="330" y="125" font-size="10" fill="#1e40af">✓ Proper prop types</text>
  <text x="330" y="145" font-size="10" fill="#1e40af">✓ Semantic HTML</text>
  <text x="330" y="165" font-size="10" fill="#1e40af">✓ Inline styles (portable)</text>
  
  <rect x="330" y="175" width="220" height="5" fill="#22c55e" rx="2"/>
  <text x="440" y="190" font-size="9" fill="#059669" text-anchor="middle">No refactoring needed</text>
  
  <!-- Comparison -->
  <rect x="30" y="195" width="540" height="50" fill="#1f2937" rx="3"/>
  <text x="300" y="215" font-size="11" font-weight="700" fill="#ffffff" text-anchor="middle">Export Quality Comparison</text>
  
  <text x="100" y="235" font-size="10" fill="#9ca3af" text-anchor="middle">TeleportHQ</text>
  <text x="100" y="250" font-size="9" fill="#22c55e" text-anchor="middle">More modular</text>
  
  <text x="220" y="235" font-size="10" fill="#9ca3af" text-anchor="middle">Framer</text>
  <text x="220" y="250" font-size="9" fill="#3b82f6" text-anchor="middle">More polished visual</text>
  
  <text x="340" y="235" font-size="10" fill="#9ca3af" text-anchor="middle">v0.dev</text>
  <text x="340" y="250" font-size="9" fill="#f59e0b" text-anchor="middle">Prompt-only</text>
  
  <text x="480" y="242" font-size="10" fill="#fbbf24" text-anchor="middle">TeleportHQ:</text>
  <text x="480" y="255" font-size="10" fill="#fbbf24" text-anchor="middle">Visual → Clean code</text>
  
  <!-- Bottom verdict -->
  <rect x="30" y="255" width="540" height="20" fill="#059669" rx="2"/>
  <text x="300" y="269" font-size="10" font-weight="700" fill="#ffffff" text-anchor="middle">Pro gear, not consumer-friendly. Developers who want visual control.</text>
</svg>