<svg width="600" height="280" viewBox="0 0 600 280" xmlns="http://www.w3.org/2000/svg">
  <rect width="600" height="280" fill="#fef3c7" rx="8"/>
  <text x="300" y="30" text-anchor="middle" font-size="18" font-weight="900" fill="#92400e">No Hosting: Freedom vs Complexity</text>
  
  <!-- The workflow -->
  <rect x="30" y="55" width="540" height="90" fill="#1f2937" rx="3"/>
  <text x="300" y="78" font-size="12" font-weight="700" fill="#ffffff" text-anchor="middle">The TeleportHQ Workflow</text>
  
  <text x="70" y="105" font-size="10" fill="#22c55e">Design visually</text>
  <text x="70" y="125" font-size="9" fill="#9ca3af">→</text>
  
  <text x="160" y="105" font-size="10" fill="#3b82f6">Export code</text>
  <text x="160" y="125" font-size="9" fill="#9ca3af">→</text>
  
  <text x="260" y="105" font-size="10" fill="#f59e0b">Deploy yourself</text>
  <text x="260" y="125" font-size="9" fill="#9ca3af">→</text>
  
  <text x="400" y="105" font-size="10" fill="#22c55e">Live site</text>
  <text x="400" y="125" font-size="9" fill="#9ca3af">(after git + GitHub + deploy)</text>
  
  <text x="300" y="145" font-size="9" fill="#fbbf24" text-anchor="middle">You handle deployment. Tradeoff: hosting freedom vs deployment complexity.</text>
  
  <!-- Deployment options -->
  <rect x="30" y="155" width="540" height="70" fill="#ffffff" stroke="#64748b" stroke-width="2" rx="5"/>
  <text x="300" y="178" font-size="11" font-weight="700" fill="#475569" text-anchor="middle">Deployment Options (You Choose)</text>
  
  <text x="70" y="200" font-size="10" fill="#475569">• Vercel (recommended)</text>
  <text x="70" y="218" font-size="10" fill="#475569">• Netlify</text>
  <text x="200" y="200" font-size="10" fill="#475569">• AWS</text>
  <text x="200" y="218" font-size="10" fill="#475569">• Your own server</text>
  <text x="380" y="200" font-size="10" fill="#22c55e">Test: 2 min to Vercel</text>
  <text x="380" y="218" font-size="9" fill="#9ca3af">(if you know git/GitHub)</text>
  
  <!-- Comparison -->
  <rect x="30" y="235" width="260" height="35" fill="#fee2e2" stroke="#dc2626" stroke-width="2" rx="5"/>
  <text x="160" y="255" font-size="10" font-weight="700" fill="#991b1b" text-anchor="middle">For Non-Developers</text>
  <text x="160" y="270" font-size="9" fill="#991b1b" text-anchor="middle">Huge barrier: need git, GitHub, Vercel</text>
  
  <rect x="310" y="235" width="260" height="35" fill="#d1fae5" stroke="#22c55e" stroke-width="2" rx="5"/>
  <text x="440" y="255" font-size="10" font-weight="700" fill="#059669" text-anchor="middle">For Developers</text>
  <text x="440" y="270" font-size="9" fill="#059669" text-anchor="middle">Perfect: control over hosting</text>
</svg>