<svg width="600" height="280" viewBox="0 0 600 280" xmlns="http://www.w3.org/2000/svg">
  <rect width="600" height="280" fill="#fef3c7" rx="8"/>
  <text x="300" y="30" text-anchor="middle" font-size="18" font-weight="900" fill="#92400e">Free Tier: Demo, Not Solution</text>
  
  <!-- Unicorn free tier -->
  <rect x="30" y="55" width="260" height="130" fill="#ffffff" stroke="#f59e0b" stroke-width="2" rx="5"/>
  <text x="160" y="80" font-size="13" font-weight="900" fill="#b45309" text-anchor="middle">Unicorn Free</text>
  
  <text x="50" y="105" font-size="10" fill="#dc2626">✗ 1 published site only</text>
  <text x="50" y="125" font-size="10" fill="#dc2626">✗ Unicorn branding on footer</text>
  <text x="50" y="145" font-size="10" fill="#dc2626">✗ Limited pages</text>
  <text x="50" y="165" font-size="10" fill="#f59e0b">⚠ Basic features only</text>
  
  <rect x="50" y="172" width="220" height="8" fill="#dc2626" rx="2"/>
  <text x="160" y="182" font-size="9" fill="#991b1b" text-anchor="middle">"Try before you buy"</text>
  
  <!-- Competitors -->
  <rect x="310" y="55" width="260" height="130" fill="#d1fae5" stroke="#22c55e" stroke-width="2" rx="5"/>
  <text x="440" y="80" font-size="13" font-weight="900" fill="#059669" text-anchor="middle">Mixo Free</text>
  
  <text x="330" y="105" font-size="10" fill="#22c55e">✓ 2 published sites</text>
  <text x="330" y="125" font-size="10" fill="#22c55e">✓ Cleaner branding</text>
  <text x="330" y="145" font-size="10" fill="#22c55e">✓ Better templates</text>
  <text x="330" y="165" font-size="10" fill="#22c55e">✓ AI content generation</text>
  
  <rect x="330" y="172" width="220" height="8" fill="#22c55e" rx="2"/>
  <text x="440" y="182" font-size="9" fill="#059669" text-anchor="middle">Actually usable free tier</text>
  
  <!-- Durable note -->
  <rect x="30" y="195" width="540" height="50" fill="#1f2937" rx="3"/>
  <text x="300" y="218" font-size="11" font-weight="700" fill="#ffffff" text-anchor="middle">Durable Free: More Features Than Both</text>
  <text x="300" y="238" font-size="10" fill="#9ca3af" text-anchor="middle">Includes CRM, booking, invoicing on free tier • Actually valuable for testing</text>
  
  <!-- Bottom verdict -->
  <rect x="30" y="255" width="540" height="20" fill="#f59e0b" rx="2"/>
  <text x="300" y="269" font-size="10" font-weight="700" fill="#ffffff" text-anchor="middle">Unicorn free is a demo, not a solution. Mixo/Durable give more for free.</text>
</svg>