<svg width="600" height="280" viewBox="0 0 600 280" xmlns="http://www.w3.org/2000/svg">
  <rect width="600" height="280" fill="#fef3c7" rx="8"/>
  <text x="300" y="30" text-anchor="middle" font-size="18" font-weight="900" fill="#92400e">AI Features: Worse Than ChatGPT + Copy-Paste</text>
  
  <!-- Test scope -->
  <rect x="30" y="55" width="540" height="40" fill="#1f2937" rx="3"/>
  <text x="300" y="75" font-size="11" font-weight="700" fill="#ffffff" text-anchor="middle">Tested: Homepage Copy, About Page, Product Descriptions</text>
  <text x="300" y="92" font-size="9" fill="#9ca3af" text-anchor="middle">Compared against ChatGPT and competitor AI tools</text>
  
  <!-- Web.com AI -->
  <rect x="30" y="105" width="260" height="110" fill="#ffffff" stroke="#f59e0b" stroke-width="2" rx="5"/>
  <text x="160" y="128" font-size="12" font-weight="900" fill="#b45309" text-anchor="middle">Web.com AI</text>
  
  <text x="50" y="150" font-size="10" fill="#f59e0b">⚠ Generic content</text>
  <text x="50" y="168" font-size="10" fill="#f59e0b">⚠ Repetitive phrases</text>
  <text x="50" y="186" font-size="10" fill="#f59e0b">⚠ No brand voice</text>
  <text x="50" y="204" font-size="10" fill="#dc2626">✗ Needs heavy editing</text>
  
  <rect x="50" y="208" width="220" height="5" fill="#f59e0b" rx="2"/>
  
  <!-- Alternatives -->
  <rect x="310" y="105" width="260" height="110" fill="#d1fae5" stroke="#22c55e" stroke-width="2" rx="5"/>
  <text x="440" y="128" font-size="12" font-weight="900" fill="#059669" text-anchor="middle">Better Options</text>
  
  <text x="330" y="150" font-size="10" fill="#059669">ChatGPT + Copy-Paste:</text>
  <text x="330" y="168" font-size="9" fill="#047857">Better quality, free</text>
  
  <text x="330" y="188" font-size="10" fill="#059669">Framer AI / Durable:</text>
  <text x="330" y="206" font-size="9" fill="#047857">Integrated, actually good</text>
  
  <rect x="330" y="208" width="220" height="5" fill="#22c55e" rx="2"/>
  
  <!-- Bottom verdict -->
  <rect x="30" y="225" width="540" height="50" fill="#1f2937" rx="3"/>
  <text x="300" y="248" font-size="11" font-weight="700" fill="#ffffff" text-anchor="middle">The AI Reality</text>
  <text x="300" y="268" font-size="10" fill="#fbbf24" text-anchor="middle">Web.com AI exists to check a box • ChatGPT is better and free • Competitors integrate better AI</text>
</svg>