<svg width="700" height="400" viewBox="0 0 700 400" xmlns="http://www.w3.org/2000/svg">
  <rect width="700" height="400" fill="#f9fafb" rx="8"/>

  <!-- Title -->
  <text x="350" y="35" text-anchor="middle" font-size="20" font-weight="900" fill="#1f2937">Webflow Learning Curve: Week 1</text>

  <!-- Day by Day -->
  <g transform="translate(30, 70)">
    <!-- Day 1-3 -->
    <rect x="0" y="0" width="180" height="80" fill="#fee2e2" stroke="#ef4444" stroke-width="2" rx="4"/>
    <text x="90" y="25" text-anchor="middle" font-size="14" font-weight="700" fill="#dc2626">Day 1-3</text>
    <text x="15" y="45" font-size="12" fill="#7f1d1d">❌ Can't make navbar</text>
    <text x="15" y="62" font-size="12" fill="#7f1d1d">❌ "Classes" alien</text>

    <!-- Day 4-5 -->
    <rect x="200" y="0" width="180" height="80" fill="#fef3c7" stroke="#f59e0b" stroke-width="2" rx="4"/>
    <text x="290" y="25" text-anchor="middle" font-size="14" font-weight="700" fill="#92400e">Day 4-5</text>
    <text x="215" y="45" font-size="12" fill="#78350f">❌ Can't center div</text>
    <text x="215" y="62" font-size="12" fill="#78350f">❌ Longing for WP</text>

    <!-- Day 6 -->
    <rect x="400" y="0" width="180" height="80" fill="#fee2e2" stroke="#ef4444" stroke-width="2" rx="4"/>
    <text x="490" y="25" text-anchor="middle" font-size="14" font-weight="700" fill="#dc2626">Day 6</text>
    <text x="415" y="45" font-size="12" fill="#7f1d1d">⚠️ Nearly quit</text>
    <text x="415" y="62" font-size="12" fill="#7f1d1d">❌ Everything confusing</text>
  </g>

  <!-- Barrier -->
  <rect x="50" y="180" width="600" height="50" fill="#1f2937" rx="4"/>
  <text x="350" y="212" text-anchor="middle" font-size="16" font-weight="700" fill="#ffffff">🚧 THE LEARNING CURVE IS REAL</text>

  <!-- Result -->
  <rect x="100" y="260" width="500" height="100" fill="#ffffff" stroke="#3b82f6" stroke-width="2" rx="8"/>
  <text x="350" y="290" text-anchor="middle" font-size="14" font-weight="700" fill="#1f2937">THE INVESTMENT PAYS OFF</text>
  <text x="120" y="315" font-size="13" fill="#374151">• 3 weeks to feel proficient</text>
  <text x="120" y="335" font-size="13" fill="#374151">• After "aha moment": charges $5K per site</text>
  <text x="120" y="355" font-size="13" fill="#374151">• Same person who nearly quit now wins with Webflow</text>
</svg>