<svg width="600" height="320" viewBox="0 0 600 320" xmlns="http://www.w3.org/2000/svg">
  <rect width="600" height="320" fill="#fef3c7" rx="8"/>
  <text x="300" y="30" text-anchor="middle" font-size="18" font-weight="900" fill="#92400e">AI Heatmap: Predictive, Not Real Data</text>
  
  <!-- Mock heatmap visualization -->
  <rect x="20" y="50" width="260" height="180" fill="#fef3c7" stroke="#d97706" stroke-width="2" rx="4"/>
  <text x="150" y="75" text-anchor="middle" font-size="14" font-weight="700" fill="#92400e">Zyro AI Predictions</text>
  
  <!-- Hot zones (predicted) -->
  <rect x="35" y="90" width="80" height="40" fill="#ef4444" opacity="0.7" rx="2"/>
  <text x="75" y="115" text-anchor="middle" font-size="12" font-weight="700" fill="white">CTA</text>
  
  <rect x="130" y="90" width="60" height="40" fill="#f97316" opacity="0.7" rx="2"/>
  <text x="160" y="115" text-anchor="middle" font-size="12" font-weight="700" fill="white">Nav</text>
  
  <rect x="200" y="90" width="60" height="40" fill="#22c55e" opacity="0.7" rx="2"/>
  <text x="230" y="115" text-anchor="middle" font-size="12" font-weight="700" fill="white">Meh</text>
  
  <!-- Real data -->
  <rect x="320" y="50" width="260" height="180" fill="#ecfdf5" stroke="#059669" stroke-width="2" rx="4"/>
  <text x="450" y="75" text-anchor="middle" font-size="14" font-weight="700" fill="#047857">Real Hotjar Data</text>
  
  <!-- Actual hot zones -->
  <rect x="335" y="90" width="80" height="40" fill="#ef4444" opacity="0.7" rx="2"/>
  <text x="375" y="115" text-anchor="middle" font-size="12" font-weight="700" fill="white">CTA</text>
  
  <rect x="430" y="90" width="60" height="40" fill="#f97316" opacity="0.7" rx="2"/>
  <text x="460" y="115" text-anchor="middle" font-size="12" font-weight="700" fill="white">Nav</text>
  
  <rect x="500" y="90" width="60" height="40" fill="#ef4444" opacity="0.7" rx="2"/>
  <text x="530" y="115" text-anchor="middle" font-size="12" font-weight="700" fill="white">Wow!</text>
  
  <!-- Accuracy note -->
  <text x="20" y="255" font-size="16" font-weight="900" fill="#92400e">Prediction Accuracy: 60%</text>
  <text x="20" y="280" font-size="13" font-weight="600" fill="#78716c">✓ Got major elements right (CTA, Nav)</text>
  <text x="20" y="300" font-size="13" font-weight="600" fill="#78716c">✗ Missed nuance (unexpected zones, scroll depth)</text>
  
  <text x="350" y="255" font-size="14" font-weight="700" fill="#047857">Use for: Initial layout planning</text>
  <text x="350" y="275" font-size="14" font-weight="700" fill="#dc2626">Not for: Real analytics (get Hotjar)</text>
</svg>